<svg xmlns="http://www.w3.org/2000/svg" xmlns:xlink="http://www.w3.org/1999/xlink" width="64"
    zoomAndPan="magnify" viewBox="0 0 48 48" height="64" preserveAspectRatio="xMidYMid meet"
    version="1.0">
    <defs>
        <clipPath id="10a137beed">
            <path
                d="M 1.273438 16.304688 L 13.894531 16.304688 L 13.894531 30.886719 L 1.273438 30.886719 Z M 1.273438 16.304688 "
                clip-rule="nonzero" />
        </clipPath>
        <clipPath id="b0edf874e3">
            <path
                d="M 6.550781 23.597656 L 13.890625 19.355469 L 13.890625 16.316406 L 1.28125 23.597656 L 13.890625 30.875 L 13.890625 27.832031 Z M 6.550781 23.597656 "
                clip-rule="nonzero" />
        </clipPath>
        <clipPath id="75b9835197">
            <path
                d="M 1.441406 16.136719 L 14.0625 16.136719 L 14.0625 30.71875 L 1.441406 30.71875 Z M 1.441406 16.136719 "
                clip-rule="nonzero" />
        </clipPath>
        <clipPath id="7248450403">
            <path
                d="M 6.714844 23.425781 L 14.054688 19.1875 L 14.054688 16.144531 L 1.445312 23.425781 L 14.054688 30.707031 L 14.054688 27.664062 Z M 6.714844 23.425781 "
                clip-rule="nonzero" />
        </clipPath>
        <clipPath id="6fa2d0b383">
            <path
                d="M 15.683594 15.128906 L 30.3125 15.128906 L 30.3125 27.832031 L 15.683594 27.832031 Z M 15.683594 15.128906 "
                clip-rule="nonzero" />
        </clipPath>
        <clipPath id="e8a486596a">
            <path
                d="M 22.96875 22.503906 L 18.730469 15.164062 L 15.6875 15.164062 L 22.96875 27.773438 L 30.25 15.164062 L 27.207031 15.164062 Z M 22.96875 22.503906 "
                clip-rule="nonzero" />
        </clipPath>
        <clipPath id="4786a7b35a">
            <path
                d="M 23.675781 22.335938 L 32.238281 22.335938 L 32.238281 32.042969 L 23.675781 32.042969 Z M 23.675781 22.335938 "
                clip-rule="nonzero" />
        </clipPath>
        <clipPath id="bc1ead5e62">
            <path
                d="M 32.210938 22.394531 L 29.167969 22.394531 L 23.675781 32.027344 L 26.722656 32.027344 Z M 32.210938 22.394531 "
                clip-rule="nonzero" />
        </clipPath>
        <clipPath id="65823faa37">
            <path
                d="M 15.824219 14.988281 L 30.453125 14.988281 L 30.453125 27.617188 L 15.824219 27.617188 Z M 15.824219 14.988281 "
                clip-rule="nonzero" />
        </clipPath>
        <clipPath id="478e534d7b">
            <path
                d="M 23.132812 22.335938 L 18.894531 14.992188 L 15.851562 14.992188 L 23.132812 27.605469 L 30.414062 14.992188 L 27.371094 14.992188 Z M 23.132812 22.335938 "
                clip-rule="nonzero" />
        </clipPath>
        <clipPath id="b6484b032f">
            <path
                d="M 23.816406 22.195312 L 32.378906 22.195312 L 32.378906 31.898438 L 23.816406 31.898438 Z M 23.816406 22.195312 "
                clip-rule="nonzero" />
        </clipPath>
        <clipPath id="fc2d7d627a">
            <path
                d="M 29.332031 22.226562 L 23.84375 31.859375 L 26.882812 31.859375 L 32.375 22.226562 Z M 29.332031 22.226562 "
                clip-rule="nonzero" />
        </clipPath>
        <clipPath id="fd0e0402d2">
            <path
                d="M 34 16.304688 L 46.617188 16.304688 L 46.617188 30.886719 L 34 30.886719 Z M 34 16.304688 "
                clip-rule="nonzero" />
        </clipPath>
        <clipPath id="9e263b6971">
            <path
                d="M 41.347656 23.59375 L 34.007812 19.355469 L 34.007812 16.316406 L 46.617188 23.59375 L 34.007812 30.875 L 34.007812 27.832031 Z M 41.347656 23.59375 "
                clip-rule="nonzero" />
        </clipPath>
        <clipPath id="b1bd4b7984">
            <path
                d="M 34.167969 16.136719 L 46.785156 16.136719 L 46.785156 30.71875 L 34.167969 30.71875 Z M 34.167969 16.136719 "
                clip-rule="nonzero" />
        </clipPath>
        <clipPath id="3c8ee46faa">
            <path
                d="M 34.167969 16.144531 L 34.167969 19.1875 L 41.511719 23.425781 L 34.167969 27.664062 L 34.167969 30.707031 L 46.78125 23.425781 Z M 34.167969 16.144531 "
                clip-rule="nonzero" />
        </clipPath>
    </defs>
    <g clip-path="url(#10a137beed)">
        <g clip-path="url(#b0edf874e3)">
            <path fill="#00a4ed"
                d="M 0.488281 15.351562 L 14.847656 15.351562 L 14.847656 31.671875 L 0.488281 31.671875 Z M 0.488281 15.351562 "
                fill-opacity="1" fill-rule="nonzero" />
        </g>
    </g>
    <g clip-path="url(#75b9835197)">
        <g clip-path="url(#7248450403)">
            <path fill="#00a4ed"
                d="M 0.488281 15.351562 L 14.847656 15.351562 L 14.847656 31.671875 L 0.488281 31.671875 Z M 0.488281 15.351562 "
                fill-opacity="1" fill-rule="nonzero" />
        </g>
    </g>
    <g clip-path="url(#6fa2d0b383)">
        <g clip-path="url(#e8a486596a)">
            <path fill="#00a4ed"
                d="M 14.898438 14.203125 L 33.164062 14.203125 L 33.164062 32.828125 L 14.898438 32.828125 Z M 14.898438 14.203125 "
                fill-opacity="1" fill-rule="nonzero" />
        </g>
    </g>
    <g clip-path="url(#4786a7b35a)">
        <g clip-path="url(#bc1ead5e62)">
            <path fill="#00a4ed"
                d="M 14.898438 14.203125 L 33.164062 14.203125 L 33.164062 32.828125 L 14.898438 32.828125 Z M 14.898438 14.203125 "
                fill-opacity="1" fill-rule="nonzero" />
        </g>
    </g>
    <g clip-path="url(#65823faa37)">
        <g clip-path="url(#478e534d7b)">
            <path fill="#00a4ed"
                d="M 14.898438 14.203125 L 33.164062 14.203125 L 33.164062 32.828125 L 14.898438 32.828125 Z M 14.898438 14.203125 "
                fill-opacity="1" fill-rule="nonzero" />
        </g>
    </g>
    <g clip-path="url(#b6484b032f)">
        <g clip-path="url(#fc2d7d627a)">
            <path fill="#00a4ed"
                d="M 14.898438 14.203125 L 33.164062 14.203125 L 33.164062 32.828125 L 14.898438 32.828125 Z M 14.898438 14.203125 "
                fill-opacity="1" fill-rule="nonzero" />
        </g>
    </g>
    <g clip-path="url(#fd0e0402d2)">
        <g clip-path="url(#9e263b6971)">
            <path fill="#00a4ed"
                d="M 33.214844 15.351562 L 47.570312 15.351562 L 47.570312 31.671875 L 33.214844 31.671875 Z M 33.214844 15.351562 "
                fill-opacity="1" fill-rule="nonzero" />
        </g>
    </g>
    <g clip-path="url(#b1bd4b7984)">
        <g clip-path="url(#3c8ee46faa)">
            <path fill="#00a4ed"
                d="M 33.214844 15.351562 L 47.570312 15.351562 L 47.570312 31.671875 L 33.214844 31.671875 Z M 33.214844 15.351562 "
                fill-opacity="1" fill-rule="nonzero" />
        </g>
    </g>
</svg>