<svg xmlns="http://www.w3.org/2000/svg" xmlns:xlink="http://www.w3.org/1999/xlink" width="1756" zoomAndPan="magnify" viewBox="0 0 1317 699.749979" height="933" preserveAspectRatio="xMidYMid meet" version="1.0"><defs><filter x="0%" y="0%" width="100%" height="100%" id="9342c734b5"><feColorMatrix values="0 0 0 0 1 0 0 0 0 1 0 0 0 0 1 0 0 0 1 0" color-interpolation-filters="sRGB"/></filter><g/><mask id="170106ea37"><g filter="url(#9342c734b5)"><rect x="-131.7" width="1580.4" fill="#000000" y="-69.974998" height="839.699975" fill-opacity="0.3"/></g></mask><clipPath id="bedbe9e991"><path d="M 0.300781 0.683594 L 80 0.683594 L 80 92.8125 L 0.300781 92.8125 Z M 0.300781 0.683594 " clip-rule="nonzero"/></clipPath><clipPath id="b17b2ddfd9"><path d="M 33.601562 46.6875 L 79.984375 19.90625 L 79.984375 0.683594 L 0.300781 46.6875 L 79.984375 92.691406 L 79.984375 73.46875 Z M 33.601562 46.6875 " clip-rule="nonzero"/></clipPath><clipPath id="5a8f859d15"><rect x="0" width="81" y="0" height="94"/></clipPath><mask id="198ad7927b"><g filter="url(#9342c734b5)"><rect x="-131.7" width="1580.4" fill="#000000" y="-69.974998" height="839.699975" fill-opacity="0.3"/></g></mask><clipPath id="92dd441d7a"><path d="M 0.765625 0.371094 L 80.5625 0.371094 L 80.5625 92.5 L 0.765625 92.5 Z M 0.765625 0.371094 " clip-rule="nonzero"/></clipPath><clipPath id="316f4d5670"><path d="M 34.0625 46.375 L 80.449219 19.59375 L 80.449219 0.371094 L 0.765625 46.375 L 80.449219 92.378906 L 80.449219 73.152344 Z M 34.0625 46.375 " clip-rule="nonzero"/></clipPath><clipPath id="f2966892b5"><rect x="0" width="81" y="0" height="93"/></clipPath><mask id="927bd89953"><g filter="url(#9342c734b5)"><rect x="-131.7" width="1580.4" fill="#000000" y="-69.974998" height="839.699975" fill-opacity="0.3"/></g></mask><clipPath id="16036fe316"><path d="M 0.417969 0.59375 L 80.277344 0.59375 L 80.277344 92.722656 L 0.417969 92.722656 Z M 0.417969 0.59375 " clip-rule="nonzero"/></clipPath><clipPath id="38fb72d19b"><path d="M 33.714844 46.597656 L 80.097656 19.816406 L 80.097656 0.59375 L 0.417969 46.597656 L 80.097656 92.601562 L 80.097656 73.378906 Z M 33.714844 46.597656 " clip-rule="nonzero"/></clipPath><clipPath id="83b96d2ccd"><rect x="0" width="81" y="0" height="93"/></clipPath><mask id="a593522ce4"><g filter="url(#9342c734b5)"><rect x="-131.7" width="1580.4" fill="#000000" y="-69.974998" height="839.699975" fill-opacity="0.3"/></g></mask><clipPath id="0593298c98"><path d="M 5.246094 5.328125 L 97.742188 5.328125 L 97.742188 85.3125 L 5.246094 85.3125 Z M 5.246094 5.328125 " clip-rule="nonzero"/></clipPath><clipPath id="12aec1fef7"><path d="M 51.332031 51.792969 L 24.550781 5.410156 L 5.328125 5.410156 L 51.332031 85.09375 L 97.335938 5.410156 L 78.113281 5.410156 Z M 51.332031 51.792969 " clip-rule="nonzero"/></clipPath><clipPath id="8c1bb0de01"><path d="M 55.738281 51 L 109.808594 51 L 109.808594 112 L 55.738281 112 Z M 55.738281 51 " clip-rule="nonzero"/></clipPath><clipPath id="9cc12f1d36"><path d="M 109.722656 51.105469 L 90.5 51.105469 L 55.8125 111.964844 L 75.042969 111.964844 Z M 109.722656 51.105469 " clip-rule="nonzero"/></clipPath><clipPath id="1c5db14590"><rect x="0" width="115" y="0" height="118"/></clipPath><mask id="1173053b36"><g filter="url(#9342c734b5)"><rect x="-131.7" width="1580.4" fill="#000000" y="-69.974998" height="839.699975" fill-opacity="0.3"/></g></mask><clipPath id="c0a252f180"><path d="M 5.707031 5.015625 L 98 5.015625 L 98 85 L 5.707031 85 Z M 5.707031 5.015625 " clip-rule="nonzero"/></clipPath><clipPath id="0c93198dad"><path d="M 51.796875 51.480469 L 25.015625 5.097656 L 5.792969 5.097656 L 51.796875 84.78125 L 97.796875 5.097656 L 78.574219 5.097656 Z M 51.796875 51.480469 " clip-rule="nonzero"/></clipPath><clipPath id="e1b78b0a67"><path d="M 56.203125 50.59375 L 110.269531 50.59375 L 110.269531 111.8125 L 56.203125 111.8125 Z M 56.203125 50.59375 " clip-rule="nonzero"/></clipPath><clipPath id="47c853b11e"><path d="M 90.960938 50.792969 L 56.273438 111.652344 L 75.507812 111.652344 L 110.195312 50.78125 Z M 90.960938 50.792969 " clip-rule="nonzero"/></clipPath><clipPath id="bf876f2fa7"><rect x="0" width="116" y="0" height="117"/></clipPath><mask id="cfbbe6823a"><g filter="url(#9342c734b5)"><rect x="-131.7" width="1580.4" fill="#000000" y="-69.974998" height="839.699975" fill-opacity="0.3"/></g></mask><clipPath id="9d5786e1f8"><path d="M 5.359375 5.238281 L 97.859375 5.238281 L 97.859375 85.226562 L 5.359375 85.226562 Z M 5.359375 5.238281 " clip-rule="nonzero"/></clipPath><clipPath id="95c406efd7"><path d="M 51.445312 51.707031 L 24.667969 5.324219 L 5.441406 5.324219 L 51.445312 85.003906 L 97.449219 5.324219 L 78.226562 5.324219 Z M 51.445312 51.707031 " clip-rule="nonzero"/></clipPath><clipPath id="4f7537876a"><path d="M 55.855469 51 L 109.921875 51 L 109.921875 112 L 55.855469 112 Z M 55.855469 51 " clip-rule="nonzero"/></clipPath><clipPath id="bdc74c5b39"><path d="M 109.835938 51.015625 L 90.613281 51.015625 L 55.925781 111.875 L 75.15625 111.875 Z M 109.835938 51.015625 " clip-rule="nonzero"/></clipPath><clipPath id="87d5350ad3"><rect x="0" width="115" y="0" height="118"/></clipPath><mask id="0b512638a4"><g filter="url(#9342c734b5)"><rect x="-131.7" width="1580.4" fill="#000000" y="-69.974998" height="839.699975" fill-opacity="0.3"/></g></mask><clipPath id="07475b2163"><path d="M 1.070312 0.683594 L 80.847656 0.683594 L 80.847656 92.8125 L 1.070312 92.8125 Z M 1.070312 0.683594 " clip-rule="nonzero"/></clipPath><clipPath id="26f346c01d"><path d="M 1.070312 0.683594 L 1.070312 19.90625 L 47.453125 46.6875 L 1.070312 73.46875 L 1.070312 92.691406 L 80.75 46.6875 Z M 1.070312 0.683594 " clip-rule="nonzero"/></clipPath><clipPath id="915ce555ec"><rect x="0" width="81" y="0" height="94"/></clipPath><mask id="ee8cc155be"><g filter="url(#9342c734b5)"><rect x="-131.7" width="1580.4" fill="#000000" y="-69.974998" height="839.699975" fill-opacity="0.3"/></g></mask><clipPath id="242e7a226e"><path d="M 0.53125 0.371094 L 80.367188 0.371094 L 80.367188 92.5 L 0.53125 92.5 Z M 0.53125 0.371094 " clip-rule="nonzero"/></clipPath><clipPath id="1bbaae3683"><path d="M 46.914062 46.375 L 0.53125 19.59375 L 0.53125 0.371094 L 80.214844 46.375 L 0.53125 92.378906 L 0.53125 73.15625 Z M 46.914062 46.375 " clip-rule="nonzero"/></clipPath><clipPath id="d548f57a65"><rect x="0" width="81" y="0" height="93"/></clipPath><mask id="03551fdd78"><g filter="url(#9342c734b5)"><rect x="-131.7" width="1580.4" fill="#000000" y="-69.974998" height="839.699975" fill-opacity="0.3"/></g></mask><clipPath id="e2e56bd43a"><path d="M 1.183594 0.597656 L 81 0.597656 L 81 92.726562 L 1.183594 92.726562 Z M 1.183594 0.597656 " clip-rule="nonzero"/></clipPath><clipPath id="5d5a940a30"><path d="M 47.566406 46.601562 L 1.183594 19.820312 L 1.183594 0.597656 L 80.867188 46.601562 L 1.183594 92.605469 L 1.183594 73.378906 Z M 47.566406 46.601562 " clip-rule="nonzero"/></clipPath><clipPath id="92c3dfeb5a"><rect x="0" width="82" y="0" height="93"/></clipPath><mask id="ca4b71a240"><g filter="url(#9342c734b5)"><rect x="-131.7" width="1580.4" fill="#000000" y="-69.974998" height="839.699975" fill-opacity="0.3"/></g></mask><clipPath id="7f3df35c73"><path d="M 0.28125 0.683594 L 79.984375 0.683594 L 79.984375 92.8125 L 0.28125 92.8125 Z M 0.28125 0.683594 " clip-rule="nonzero"/></clipPath><clipPath id="e51880f13e"><path d="M 79.960938 0.683594 L 0.28125 46.683594 L 79.960938 92.6875 L 79.960938 73.464844 L 33.578125 46.683594 L 79.960938 19.90625 Z M 79.960938 0.683594 " clip-rule="nonzero"/></clipPath><clipPath id="cc701b3090"><rect x="0" width="80" y="0" height="94"/></clipPath><mask id="20ec1e133b"><g filter="url(#9342c734b5)"><rect x="-131.7" width="1580.4" fill="#000000" y="-69.974998" height="839.699975" fill-opacity="0.3"/></g></mask><clipPath id="75d7b2e169"><path d="M 0.28125 0.644531 L 79.984375 0.644531 L 79.984375 92.773438 L 0.28125 92.773438 Z M 0.28125 0.644531 " clip-rule="nonzero"/></clipPath><clipPath id="83892c6888"><path d="M 79.960938 0.644531 L 0.28125 46.648438 L 79.960938 92.648438 L 79.960938 73.425781 L 33.578125 46.648438 L 79.960938 19.867188 Z M 79.960938 0.644531 " clip-rule="nonzero"/></clipPath><clipPath id="251443780b"><rect x="0" width="80" y="0" height="93"/></clipPath><clipPath id="67285d066c"><path d="M 526.324219 304.621094 L 606.050781 304.621094 L 606.050781 396.746094 L 526.324219 396.746094 Z M 526.324219 304.621094 " clip-rule="nonzero"/></clipPath><clipPath id="562d58b2a7"><path d="M 559.660156 350.679688 L 606.042969 323.898438 L 606.042969 304.675781 L 526.363281 350.679688 L 606.042969 396.679688 L 606.042969 377.449219 Z M 559.660156 350.679688 " clip-rule="nonzero"/></clipPath><clipPath id="38b8b1610f"><path d="M 527.386719 303.558594 L 607.113281 303.558594 L 607.113281 395.683594 L 527.386719 395.683594 Z M 527.386719 303.558594 " clip-rule="nonzero"/></clipPath><clipPath id="dbe29a26ea"><path d="M 560.699219 349.597656 L 607.074219 322.816406 L 607.074219 303.59375 L 527.390625 349.597656 L 607.074219 395.601562 L 607.074219 376.378906 Z M 560.699219 349.597656 " clip-rule="nonzero"/></clipPath><mask id="3aebb2a0c8"><g filter="url(#9342c734b5)"><rect x="-131.7" width="1580.4" fill="#000000" y="-69.974998" height="839.699975" fill-opacity="0.3"/></g></mask><clipPath id="0df502a2c0"><path d="M 5.222656 5.328125 L 97.722656 5.328125 L 97.722656 85.3125 L 5.222656 85.3125 Z M 5.222656 5.328125 " clip-rule="nonzero"/></clipPath><clipPath id="c478c7e8a7"><path d="M 51.3125 51.792969 L 24.53125 5.410156 L 5.308594 5.410156 L 51.3125 85.089844 L 97.3125 5.410156 L 78.089844 5.410156 Z M 51.3125 51.792969 " clip-rule="nonzero"/></clipPath><clipPath id="b2ef7d4c9b"><path d="M 55.71875 51 L 109.785156 51 L 109.785156 112 L 55.71875 112 Z M 55.71875 51 " clip-rule="nonzero"/></clipPath><clipPath id="45c8ca37b2"><path d="M 90.476562 51.105469 L 55.789062 111.960938 L 75.023438 111.960938 L 109.710938 51.09375 Z M 90.476562 51.105469 " clip-rule="nonzero"/></clipPath><clipPath id="c9b9328342"><rect x="0" width="115" y="0" height="118"/></clipPath><mask id="494aa851b7"><g filter="url(#9342c734b5)"><rect x="-131.7" width="1580.4" fill="#000000" y="-69.974998" height="839.699975" fill-opacity="0.3"/></g></mask><clipPath id="542f836349"><path d="M 5.222656 5.289062 L 97.722656 5.289062 L 97.722656 85.273438 L 5.222656 85.273438 Z M 5.222656 5.289062 " clip-rule="nonzero"/></clipPath><clipPath id="2f747fbd94"><path d="M 51.3125 51.753906 L 24.53125 5.371094 L 5.308594 5.371094 L 51.3125 85.054688 L 97.3125 5.371094 L 78.089844 5.371094 Z M 51.3125 51.753906 " clip-rule="nonzero"/></clipPath><clipPath id="46b734cd93"><path d="M 55.71875 51 L 109.785156 51 L 109.785156 112 L 55.71875 112 Z M 55.71875 51 " clip-rule="nonzero"/></clipPath><clipPath id="3846ad69bf"><path d="M 90.476562 51.066406 L 55.789062 111.921875 L 75.023438 111.921875 L 109.710938 51.054688 Z M 90.476562 51.066406 " clip-rule="nonzero"/></clipPath><clipPath id="d5d52c1ee9"><rect x="0" width="115" y="0" height="118"/></clipPath><clipPath id="8f621bd11c"><path d="M 617.347656 297.1875 L 709.78125 297.1875 L 709.78125 377.445312 L 617.347656 377.445312 Z M 617.347656 297.1875 " clip-rule="nonzero"/></clipPath><clipPath id="0cf23e9a6a"><path d="M 663.390625 343.773438 L 636.609375 297.402344 L 617.386719 297.402344 L 663.390625 377.074219 L 709.394531 297.402344 L 690.171875 297.402344 Z M 663.390625 343.773438 " clip-rule="nonzero"/></clipPath><clipPath id="370ffde1f2"><path d="M 667.847656 343 L 721.953125 343 L 721.953125 404 L 667.847656 404 Z M 667.847656 343 " clip-rule="nonzero"/></clipPath><clipPath id="6974b43c77"><path d="M 721.78125 343.085938 L 702.554688 343.085938 L 667.871094 403.953125 L 687.101562 403.953125 Z M 721.78125 343.085938 " clip-rule="nonzero"/></clipPath><clipPath id="9683e4af90"><path d="M 618.25 296.285156 L 710.683594 296.285156 L 710.683594 376.089844 L 618.25 376.089844 Z M 618.25 296.285156 " clip-rule="nonzero"/></clipPath><clipPath id="68001c93ff"><path d="M 664.421875 342.707031 L 637.648438 296.324219 L 618.425781 296.324219 L 664.421875 376.003906 L 710.421875 296.324219 L 691.199219 296.324219 Z M 664.421875 342.707031 " clip-rule="nonzero"/></clipPath><clipPath id="d14d0b3626"><path d="M 668.75 342 L 722.855469 342 L 722.855469 403 L 668.75 403 Z M 668.75 342 " clip-rule="nonzero"/></clipPath><clipPath id="6e2191f024"><path d="M 703.597656 342.015625 L 668.910156 402.882812 L 688.132812 402.882812 L 722.820312 342.015625 Z M 703.597656 342.015625 " clip-rule="nonzero"/></clipPath><mask id="b4c63b4127"><g filter="url(#9342c734b5)"><rect x="-131.7" width="1580.4" fill="#000000" y="-69.974998" height="839.699975" fill-opacity="0.3"/></g></mask><clipPath id="bb6227986a"><path d="M 1.046875 0.683594 L 80.789062 0.683594 L 80.789062 92.8125 L 1.046875 92.8125 Z M 1.046875 0.683594 " clip-rule="nonzero"/></clipPath><clipPath id="42196f9ddd"><path d="M 1.046875 0.683594 L 1.046875 19.90625 L 47.429688 46.6875 L 1.046875 73.46875 L 1.046875 92.691406 L 80.730469 46.6875 Z M 1.046875 0.683594 " clip-rule="nonzero"/></clipPath><clipPath id="01042903e2"><rect x="0" width="81" y="0" height="94"/></clipPath><mask id="b04b4945f2"><g filter="url(#9342c734b5)"><rect x="-131.7" width="1580.4" fill="#000000" y="-69.974998" height="839.699975" fill-opacity="0.3"/></g></mask><clipPath id="34503263d5"><path d="M 1.046875 0.644531 L 80.789062 0.644531 L 80.789062 92.773438 L 1.046875 92.773438 Z M 1.046875 0.644531 " clip-rule="nonzero"/></clipPath><clipPath id="c309f8e6b7"><path d="M 1.046875 0.644531 L 1.046875 19.867188 L 47.429688 46.648438 L 1.046875 73.429688 L 1.046875 92.652344 L 80.730469 46.648438 Z M 1.046875 0.644531 " clip-rule="nonzero"/></clipPath><clipPath id="50ae87c61d"><rect x="0" width="81" y="0" height="93"/></clipPath><clipPath id="92be671981"><path d="M 733.089844 304.621094 L 812.816406 304.621094 L 812.816406 396.746094 L 733.089844 396.746094 Z M 733.089844 304.621094 " clip-rule="nonzero"/></clipPath><clipPath id="8dfbc4bbde"><path d="M 779.511719 350.667969 L 733.128906 323.898438 L 733.128906 304.675781 L 812.808594 350.667969 L 733.128906 396.671875 L 733.128906 377.449219 Z M 779.511719 350.667969 " clip-rule="nonzero"/></clipPath><clipPath id="89e1de8783"><path d="M 734.152344 303.558594 L 813.878906 303.558594 L 813.878906 395.683594 L 734.152344 395.683594 Z M 734.152344 303.558594 " clip-rule="nonzero"/></clipPath><clipPath id="cd630292e5"><path d="M 734.160156 303.59375 L 734.160156 322.820312 L 780.542969 349.597656 L 734.160156 376.378906 L 734.160156 395.601562 L 813.839844 349.597656 Z M 734.160156 303.59375 " clip-rule="nonzero"/></clipPath><clipPath id="0d9e03b939"><path d="M 460 440.011719 L 501.660156 440.011719 L 501.660156 491.316406 L 460 491.316406 Z M 460 440.011719 " clip-rule="nonzero"/></clipPath><clipPath id="3d9c40e725"><path d="M 501.644531 440.070312 L 486.121094 491.09375 L 474.902344 491.09375 L 460.109375 440.070312 L 470.855469 440.070312 L 476.621094 462.632812 C 478.152344 468.667969 479.671875 474.777344 480.742188 480.945312 L 480.941406 480.945312 L 485.191406 462.632812 L 491.085938 440.070312 Z M 501.644531 440.070312 " clip-rule="nonzero"/></clipPath><clipPath id="2c108f2b01"><path d="M 504.414062 439.261719 L 535.949219 439.261719 L 535.949219 491.816406 L 504.414062 491.816406 Z M 504.414062 439.261719 " clip-rule="nonzero"/></clipPath><clipPath id="5ac64103a7"><path d="M 531.761719 449.695312 C 529.972656 448.765625 526.855469 447.507812 522.675781 447.507812 C 517.496094 447.507812 515.179688 450.296875 515.179688 453.144531 C 515.179688 456.792969 517.699219 458.453125 523.933594 461.300781 C 532.101562 464.953125 535.75 469.660156 535.75 476.367188 C 535.75 485.253906 529.042969 491.761719 517.167969 491.761719 C 512.128906 491.761719 507.023438 490.371094 504.632812 488.914062 L 506.550781 480.6875 C 509.210938 482.285156 513.449219 483.542969 517.566406 483.542969 C 523.007812 483.542969 525.863281 480.957031 525.863281 477.175781 C 525.863281 473.527344 523.40625 471.339844 517.769531 468.878906 C 510.070312 465.5625 505.292969 460.78125 505.292969 454.15625 C 505.292969 445.796875 511.859375 439.359375 522.875 439.359375 C 527.722656 439.359375 531.433594 440.488281 533.820312 441.679688 Z M 531.761719 449.695312 " clip-rule="nonzero"/></clipPath><clipPath id="84ab1bdadf"><path d="M 540.703125 439.261719 L 576.492188 439.261719 L 576.492188 491.816406 L 540.703125 491.816406 Z M 540.703125 439.261719 " clip-rule="nonzero"/></clipPath><clipPath id="6a8710d97e"><path d="M 575.808594 489.832031 C 573.886719 490.761719 569.769531 491.75 564.53125 491.75 C 549.207031 491.75 540.710938 481.335938 540.710938 466.210938 C 540.710938 448.355469 552.183594 439.339844 565.71875 439.339844 C 571.226562 439.339844 574.808594 440.46875 576.265625 441.261719 L 574.347656 449.21875 C 572.359375 448.355469 569.699219 447.558594 566.179688 447.558594 C 557.753906 447.558594 550.984375 453.324219 550.984375 465.671875 C 550.984375 477.21875 556.894531 483.382812 566.121094 483.382812 C 569.167969 483.382812 572.417969 482.785156 574.40625 481.925781 Z M 575.808594 489.832031 " clip-rule="nonzero"/></clipPath><clipPath id="329d77fad5"><path d="M 580.246094 453.273438 L 614.785156 453.273438 L 614.785156 491.816406 L 580.246094 491.816406 Z M 580.246094 453.273438 " clip-rule="nonzero"/></clipPath><clipPath id="950734717d"><path d="M 597.640625 460.574219 C 592.199219 460.574219 590.273438 466.941406 590.273438 472.578125 C 590.273438 479.144531 592.789062 484.585938 597.570312 484.585938 C 602.207031 484.585938 604.738281 479.074219 604.738281 472.507812 C 604.738281 466.730469 602.675781 460.5625 597.640625 460.5625 M 614.691406 472.308594 C 614.691406 486.375 605.664062 491.8125 597.4375 491.8125 C 587.484375 491.8125 580.316406 484.773438 580.316406 472.769531 C 580.316406 460.363281 587.8125 453.324219 597.828125 453.324219 C 608.175781 453.324219 614.683594 461.082031 614.683594 472.296875 " clip-rule="nonzero"/></clipPath><clipPath id="0938ded3af"><path d="M 619.789062 437.507812 L 654 437.507812 L 654 492 L 619.789062 492 Z M 619.789062 437.507812 " clip-rule="nonzero"/></clipPath><clipPath id="8659dacefb"><path d="M 643.742188 469.199219 C 643.742188 463.820312 640.492188 461.171875 637.234375 461.171875 C 632.195312 461.171875 629.667969 466.351562 629.667969 472.789062 C 629.667969 479.484375 632.457031 483.933594 637.09375 483.933594 C 640.011719 483.933594 643.730469 481.816406 643.730469 475.976562 Z M 653.558594 480.546875 C 653.558594 484.265625 653.6875 488.382812 653.828125 491.09375 L 645.203125 491.09375 L 644.742188 485.855469 L 644.542969 485.855469 C 642.613281 489.503906 638.632812 491.832031 634.125 491.832031 C 625.769531 491.832031 619.789062 484.132812 619.789062 472.917969 C 619.789062 460.3125 626.757812 453.414062 634.714844 453.414062 C 639.035156 453.414062 642.144531 455.203125 643.601562 457.734375 L 643.730469 457.734375 L 643.730469 437.75 L 653.546875 437.75 Z M 653.558594 480.546875 " clip-rule="nonzero"/></clipPath><clipPath id="9a87b1616b"><path d="M 660.335938 453.273438 L 692.367188 453.273438 L 692.367188 491.816406 L 660.335938 491.816406 Z M 660.335938 453.273438 " clip-rule="nonzero"/></clipPath><clipPath id="056b0efcc6"><path d="M 683.089844 468.738281 C 683.15625 464.890625 681.628906 460.183594 676.78125 460.183594 C 672.070312 460.183594 670.082031 465.089844 669.8125 468.738281 Z M 690.316406 489.632812 C 687.265625 490.960938 682.949219 491.75 678.371094 491.75 C 666.953125 491.75 660.457031 484.585938 660.457031 473.109375 C 660.457031 462.492188 666.5625 453.335938 677.371094 453.335938 C 686.328125 453.335938 692.164062 459.703125 692.164062 471.648438 C 692.164062 473.109375 692.09375 474.496094 691.90625 475.558594 L 669.8125 475.558594 C 670.074219 481.863281 674.589844 484.382812 679.898438 484.382812 C 683.546875 484.382812 686.40625 483.722656 688.925781 482.863281 Z M 690.316406 489.632812 " clip-rule="nonzero"/></clipPath><clipPath id="d69d2eb6cd"><path d="M 697 439.261719 L 732.664062 439.261719 L 732.664062 491.816406 L 697 491.816406 Z M 697 439.261719 " clip-rule="nonzero"/></clipPath><clipPath id="77e9a182ca"><path d="M 732.109375 489.832031 C 730.179688 490.761719 726.074219 491.75 720.835938 491.75 C 705.511719 491.75 697.011719 481.335938 697.011719 466.210938 C 697.011719 448.355469 708.488281 439.339844 722.023438 439.339844 C 727.53125 439.339844 731.109375 440.46875 732.570312 441.261719 L 730.652344 449.21875 C 728.660156 448.355469 726.003906 447.558594 722.484375 447.558594 C 714.058594 447.558594 707.289062 453.324219 707.289062 465.671875 C 707.289062 477.21875 713.1875 483.382812 722.414062 483.382812 C 725.460938 483.382812 728.710938 482.785156 730.699219 481.925781 Z M 732.109375 489.832031 " clip-rule="nonzero"/></clipPath><clipPath id="38a6d42708"><path d="M 736.417969 453.273438 L 771 453.273438 L 771 492 L 736.417969 492 Z M 736.417969 453.273438 " clip-rule="nonzero"/></clipPath><clipPath id="d87daed284"><path d="M 753.941406 460.574219 C 748.503906 460.574219 746.574219 466.941406 746.574219 472.578125 C 746.574219 479.144531 749.09375 484.585938 753.871094 484.585938 C 758.519531 484.585938 761.039062 479.074219 761.039062 472.507812 C 761.039062 466.730469 758.980469 460.5625 753.941406 460.5625 M 770.996094 472.320312 C 770.996094 486.382812 761.96875 491.820312 753.742188 491.820312 C 743.785156 491.820312 736.628906 484.785156 736.628906 472.777344 C 736.628906 460.371094 744.125 453.335938 754.140625 453.335938 C 764.5 453.335938 770.996094 461.09375 770.996094 472.308594 " clip-rule="nonzero"/></clipPath><clipPath id="5e60fdd340"><path d="M 777.710938 453.273438 L 809.746094 453.273438 L 809.746094 491.316406 L 777.710938 491.316406 Z M 777.710938 453.273438 " clip-rule="nonzero"/></clipPath><clipPath id="06c398754d"><path d="M 809.664062 491.09375 L 799.847656 491.09375 L 799.847656 469.53125 C 799.847656 465.019531 798.386719 461.433594 794.207031 461.433594 C 791.550781 461.433594 787.910156 463.492188 787.910156 469.128906 L 787.910156 491.09375 L 778.082031 491.09375 L 778.082031 465.28125 C 778.082031 460.972656 777.953125 457.453125 777.824219 454.207031 L 786.3125 454.207031 L 786.78125 459.183594 L 786.980469 459.183594 C 788.640625 456.464844 792.289062 453.40625 797.65625 453.40625 C 804.425781 453.40625 809.664062 458.113281 809.664062 468.46875 Z M 809.664062 491.09375 " clip-rule="nonzero"/></clipPath><clipPath id="255489d2de"><path d="M 813.75 440.011719 L 837.027344 440.011719 L 837.027344 492 L 813.75 492 Z M 813.75 440.011719 " clip-rule="nonzero"/></clipPath><clipPath id="073252ea92"><path d="M 837.003906 473.648438 C 837.003906 487.714844 830.234375 491.832031 820.75 491.832031 C 818.429688 491.832031 815.570312 491.433594 813.851562 490.832031 L 814.910156 482.804688 C 816.171875 483.203125 817.898438 483.535156 819.820312 483.535156 C 824.265625 483.535156 827.1875 481.546875 827.1875 473.578125 L 827.1875 440.070312 L 837.003906 440.070312 Z M 837.003906 473.648438 " clip-rule="nonzero"/></clipPath><clipPath id="8204d62cc7"><path d="M 846.285156 439.511719 L 879.074219 439.511719 L 879.074219 491.316406 L 846.285156 491.316406 Z M 846.285156 439.511719 " clip-rule="nonzero"/></clipPath><clipPath id="bdfdc6cedf"><path d="M 856.164062 464.292969 C 857.09375 464.492188 858.15625 464.5625 859.613281 464.5625 C 865.722656 464.5625 869.300781 461.113281 869.300781 455.605469 C 869.300781 450.167969 865.851562 447.308594 860.414062 447.308594 C 858.425781 447.308594 857.023438 447.507812 856.164062 447.707031 Z M 846.417969 440.730469 C 849.597656 440.128906 853.984375 439.671875 859.625 439.671875 C 866.0625 439.671875 870.898438 440.929688 874.160156 443.71875 C 877.207031 446.308594 879.066406 450.425781 879.066406 455.136719 C 879.066406 469.128906 867.390625 472.25 859.753906 472.25 L 856.164062 471.980469 L 856.164062 491.09375 L 846.410156 491.09375 Z M 846.417969 440.730469 " clip-rule="nonzero"/></clipPath><mask id="ed92cb7f21"><g filter="url(#9342c734b5)"><rect x="-131.7" width="1580.4" fill="#000000" y="-69.974998" height="839.699975" fill-opacity="0.3"/></g></mask><clipPath id="230022a7ef"><path d="M 0.945312 0.683594 L 80.648438 0.683594 L 80.648438 92.8125 L 0.945312 92.8125 Z M 0.945312 0.683594 " clip-rule="nonzero"/></clipPath><clipPath id="4f0d9fe1f1"><path d="M 34.242188 46.6875 L 80.628906 19.90625 L 80.628906 0.683594 L 0.945312 46.6875 L 80.628906 92.691406 L 80.628906 73.46875 Z M 34.242188 46.6875 " clip-rule="nonzero"/></clipPath><clipPath id="f9c5c82c07"><rect x="0" width="81" y="0" height="94"/></clipPath><mask id="3b0b516f14"><g filter="url(#9342c734b5)"><rect x="-131.7" width="1580.4" fill="#000000" y="-69.974998" height="839.699975" fill-opacity="0.3"/></g></mask><clipPath id="5d56e390f3"><path d="M 0.410156 0.371094 L 80.167969 0.371094 L 80.167969 92.5 L 0.410156 92.5 Z M 0.410156 0.371094 " clip-rule="nonzero"/></clipPath><clipPath id="3aa255fdcc"><path d="M 33.707031 46.375 L 80.089844 19.59375 L 80.089844 0.371094 L 0.410156 46.375 L 80.089844 92.378906 L 80.089844 73.152344 Z M 33.707031 46.375 " clip-rule="nonzero"/></clipPath><clipPath id="abf240e419"><rect x="0" width="81" y="0" height="93"/></clipPath><mask id="6c09bab27a"><g filter="url(#9342c734b5)"><rect x="-131.7" width="1580.4" fill="#000000" y="-69.974998" height="839.699975" fill-opacity="0.3"/></g></mask><clipPath id="88adc4c189"><path d="M 1.058594 0.59375 L 80.886719 0.59375 L 80.886719 92.722656 L 1.058594 92.722656 Z M 1.058594 0.59375 " clip-rule="nonzero"/></clipPath><clipPath id="7358e54b41"><path d="M 34.359375 46.597656 L 80.742188 19.816406 L 80.742188 0.59375 L 1.058594 46.597656 L 80.742188 92.601562 L 80.742188 73.378906 Z M 34.359375 46.597656 " clip-rule="nonzero"/></clipPath><clipPath id="ddf21cbe45"><rect x="0" width="81" y="0" height="93"/></clipPath><mask id="53c0db1250"><g filter="url(#9342c734b5)"><rect x="-131.7" width="1580.4" fill="#000000" y="-69.974998" height="839.699975" fill-opacity="0.3"/></g></mask><clipPath id="7fe8a43bf8"><path d="M 5.890625 5.328125 L 98 5.328125 L 98 85.316406 L 5.890625 85.316406 Z M 5.890625 5.328125 " clip-rule="nonzero"/></clipPath><clipPath id="53623038fd"><path d="M 51.976562 51.796875 L 25.195312 5.410156 L 5.972656 5.410156 L 51.976562 85.09375 L 97.980469 5.410156 L 78.753906 5.410156 Z M 51.976562 51.796875 " clip-rule="nonzero"/></clipPath><clipPath id="4e6583e183"><path d="M 56.382812 51 L 110.453125 51 L 110.453125 112 L 56.382812 112 Z M 56.382812 51 " clip-rule="nonzero"/></clipPath><clipPath id="0521dcc317"><path d="M 110.363281 51.105469 L 91.140625 51.105469 L 56.453125 111.964844 L 75.6875 111.964844 Z M 110.363281 51.105469 " clip-rule="nonzero"/></clipPath><clipPath id="ef25cf62f7"><rect x="0" width="116" y="0" height="118"/></clipPath><mask id="da3caece2a"><g filter="url(#9342c734b5)"><rect x="-131.7" width="1580.4" fill="#000000" y="-69.974998" height="839.699975" fill-opacity="0.3"/></g></mask><clipPath id="9891d85948"><path d="M 5.351562 5.015625 L 97.847656 5.015625 L 97.847656 85 L 5.351562 85 Z M 5.351562 5.015625 " clip-rule="nonzero"/></clipPath><clipPath id="8037b74b9c"><path d="M 51.4375 51.480469 L 24.65625 5.097656 L 5.433594 5.097656 L 51.4375 84.78125 L 97.441406 5.097656 L 78.21875 5.097656 Z M 51.4375 51.480469 " clip-rule="nonzero"/></clipPath><clipPath id="ff056fc828"><path d="M 55.84375 50.59375 L 109.914062 50.59375 L 109.914062 111.8125 L 55.84375 111.8125 Z M 55.84375 50.59375 " clip-rule="nonzero"/></clipPath><clipPath id="8dea9ecd0d"><path d="M 90.605469 50.792969 L 55.917969 111.652344 L 75.148438 111.652344 L 109.835938 50.78125 Z M 90.605469 50.792969 " clip-rule="nonzero"/></clipPath><clipPath id="6eb026e11d"><rect x="0" width="115" y="0" height="117"/></clipPath><mask id="a9f5040391"><g filter="url(#9342c734b5)"><rect x="-131.7" width="1580.4" fill="#000000" y="-69.974998" height="839.699975" fill-opacity="0.3"/></g></mask><clipPath id="9d7902fbc2"><path d="M 6.003906 5.238281 L 98.5 5.238281 L 98.5 85.226562 L 6.003906 85.226562 Z M 6.003906 5.238281 " clip-rule="nonzero"/></clipPath><clipPath id="f17af80744"><path d="M 52.089844 51.707031 L 25.308594 5.324219 L 6.085938 5.324219 L 52.089844 85.003906 L 98.09375 5.324219 L 78.871094 5.324219 Z M 52.089844 51.707031 " clip-rule="nonzero"/></clipPath><clipPath id="bff900b891"><path d="M 56.496094 51 L 110.566406 51 L 110.566406 112 L 56.496094 112 Z M 56.496094 51 " clip-rule="nonzero"/></clipPath><clipPath id="3df5faee10"><path d="M 110.480469 51.015625 L 91.253906 51.015625 L 56.566406 111.875 L 75.800781 111.875 Z M 110.480469 51.015625 " clip-rule="nonzero"/></clipPath><clipPath id="96f60d642b"><rect x="0" width="116" y="0" height="118"/></clipPath><mask id="ba466934a3"><g filter="url(#9342c734b5)"><rect x="-131.7" width="1580.4" fill="#000000" y="-69.974998" height="839.699975" fill-opacity="0.3"/></g></mask><clipPath id="bd8ebab7b2"><path d="M 0.710938 0.683594 L 80.386719 0.683594 L 80.386719 92.808594 L 0.710938 92.808594 Z M 0.710938 0.683594 " clip-rule="nonzero"/></clipPath><clipPath id="df39a13ae1"><path d="M 0.710938 0.683594 L 0.710938 19.90625 L 47.097656 46.6875 L 0.710938 73.46875 L 0.710938 92.691406 L 80.382812 46.6875 L 80.382812 46.679688 Z M 0.710938 0.683594 " clip-rule="nonzero"/></clipPath><clipPath id="77e7e5871c"><rect x="0" width="81" y="0" height="94"/></clipPath><mask id="beed597447"><g filter="url(#9342c734b5)"><rect x="-131.7" width="1580.4" fill="#000000" y="-69.974998" height="839.699975" fill-opacity="0.3"/></g></mask><clipPath id="2b9c6a4fe2"><path d="M 0.175781 0.371094 L 79.972656 0.371094 L 79.972656 92.5 L 0.175781 92.5 Z M 0.175781 0.371094 " clip-rule="nonzero"/></clipPath><clipPath id="018ce1378e"><path d="M 0.175781 0.371094 L 0.175781 19.59375 L 46.558594 46.375 L 0.175781 73.15625 L 0.175781 92.378906 L 79.855469 46.375 Z M 0.175781 0.371094 " clip-rule="nonzero"/></clipPath><clipPath id="48d04062df"><rect x="0" width="80" y="0" height="93"/></clipPath><mask id="5b7a14221a"><g filter="url(#9342c734b5)"><rect x="-131.7" width="1580.4" fill="#000000" y="-69.974998" height="839.699975" fill-opacity="0.3"/></g></mask><clipPath id="747f8a1175"><path d="M 0.828125 0.597656 L 80.503906 0.597656 L 80.503906 92.71875 L 0.828125 92.71875 Z M 0.828125 0.597656 " clip-rule="nonzero"/></clipPath><clipPath id="a3f59da27b"><path d="M 0.828125 0.597656 L 0.828125 19.820312 L 47.210938 46.601562 L 0.828125 73.378906 L 0.828125 92.605469 L 80.5 46.601562 Z M 0.828125 0.597656 " clip-rule="nonzero"/></clipPath><clipPath id="6e8ade9aab"><rect x="0" width="81" y="0" height="93"/></clipPath></defs><g mask="url(#170106ea37)"><g transform="matrix(1, 0, 0, 1, 121, 109)"><g clip-path="url(#5a8f859d15)"><g clip-path="url(#bedbe9e991)"><g clip-path="url(#b17b2ddfd9)"><path fill="#00a4ed" d="M 0.300781 0.683594 L 79.980469 0.683594 L 79.980469 92.8125 L 0.300781 92.8125 Z M 0.300781 0.683594 " fill-opacity="1" fill-rule="nonzero"/></g></g></g></g></g><g mask="url(#198ad7927b)"><g transform="matrix(1, 0, 0, 1, 126, 504)"><g clip-path="url(#f2966892b5)"><g clip-path="url(#92dd441d7a)"><g clip-path="url(#316f4d5670)"><path fill="#00a4ed" d="M 0.765625 0.371094 L 80.445312 0.371094 L 80.445312 92.5 L 0.765625 92.5 Z M 0.765625 0.371094 " fill-opacity="1" fill-rule="nonzero"/></g></g></g></g></g><g mask="url(#927bd89953)"><g transform="matrix(1, 0, 0, 1, 133, 303)"><g clip-path="url(#83b96d2ccd)"><g clip-path="url(#16036fe316)"><g clip-path="url(#38fb72d19b)"><path fill="#00a4ed" d="M 0.417969 0.59375 L 80.097656 0.59375 L 80.097656 92.722656 L 0.417969 92.722656 Z M 0.417969 0.59375 " fill-opacity="1" fill-rule="nonzero"/></g></g></g></g></g><g mask="url(#a593522ce4)"><g transform="matrix(1, 0, 0, 1, 207, 97)"><g clip-path="url(#1c5db14590)"><g clip-path="url(#0593298c98)"><g clip-path="url(#12aec1fef7)"><path fill="#00a4ed" d="M 0.332031 0.414062 L 114.722656 0.414062 L 114.722656 117.039062 L 0.332031 117.039062 Z M 0.332031 0.414062 " fill-opacity="1" fill-rule="nonzero"/></g></g><g clip-path="url(#8c1bb0de01)"><g clip-path="url(#9cc12f1d36)"><path fill="#00a4ed" d="M 0.332031 0.414062 L 114.722656 0.414062 L 114.722656 117.039062 L 0.332031 117.039062 Z M 0.332031 0.414062 " fill-opacity="1" fill-rule="nonzero"/></g></g></g></g></g><g mask="url(#1173053b36)"><g transform="matrix(1, 0, 0, 1, 212, 492)"><g clip-path="url(#bf876f2fa7)"><g clip-path="url(#c0a252f180)"><g clip-path="url(#0c93198dad)"><path fill="#00a4ed" d="M 0.792969 0.101562 L 115.1875 0.101562 L 115.1875 116.726562 L 0.792969 116.726562 Z M 0.792969 0.101562 " fill-opacity="1" fill-rule="nonzero"/></g></g><g clip-path="url(#e1b78b0a67)"><g clip-path="url(#47c853b11e)"><path fill="#00a4ed" d="M 0.792969 0.101562 L 115.1875 0.101562 L 115.1875 116.726562 L 0.792969 116.726562 Z M 0.792969 0.101562 " fill-opacity="1" fill-rule="nonzero"/></g></g></g></g></g><g mask="url(#cfbbe6823a)"><g transform="matrix(1, 0, 0, 1, 219, 291)"><g clip-path="url(#87d5350ad3)"><g clip-path="url(#9d5786e1f8)"><g clip-path="url(#95c406efd7)"><path fill="#00a4ed" d="M 0.445312 0.324219 L 114.839844 0.324219 L 114.839844 116.953125 L 0.445312 116.953125 Z M 0.445312 0.324219 " fill-opacity="1" fill-rule="nonzero"/></g></g><g clip-path="url(#4f7537876a)"><g clip-path="url(#bdc74c5b39)"><path fill="#00a4ed" d="M 0.445312 0.324219 L 114.839844 0.324219 L 114.839844 116.953125 L 0.445312 116.953125 Z M 0.445312 0.324219 " fill-opacity="1" fill-rule="nonzero"/></g></g></g></g></g><g mask="url(#0b512638a4)"><g transform="matrix(1, 0, 0, 1, 327, 109)"><g clip-path="url(#915ce555ec)"><g clip-path="url(#07475b2163)"><g clip-path="url(#26f346c01d)"><path fill="#00a4ed" d="M 1.070312 0.683594 L 80.75 0.683594 L 80.75 92.8125 L 1.070312 92.8125 Z M 1.070312 0.683594 " fill-opacity="1" fill-rule="nonzero"/></g></g></g></g></g><g mask="url(#ee8cc155be)"><g transform="matrix(1, 0, 0, 1, 333, 504)"><g clip-path="url(#d548f57a65)"><g clip-path="url(#242e7a226e)"><g clip-path="url(#1bbaae3683)"><path fill="#00a4ed" d="M 0.53125 0.371094 L 80.210938 0.371094 L 80.210938 92.5 L 0.53125 92.5 Z M 0.53125 0.371094 " fill-opacity="1" fill-rule="nonzero"/></g></g></g></g></g><g mask="url(#03551fdd78)"><g transform="matrix(1, 0, 0, 1, 339, 303)"><g clip-path="url(#92c3dfeb5a)"><g clip-path="url(#e2e56bd43a)"><g clip-path="url(#5d5a940a30)"><path fill="#00a4ed" d="M 1.183594 0.597656 L 80.863281 0.597656 L 80.863281 92.726562 L 1.183594 92.726562 Z M 1.183594 0.597656 " fill-opacity="1" fill-rule="nonzero"/></g></g></g></g></g><g mask="url(#ca4b71a240)"><g transform="matrix(1, 0, 0, 1, 515, 109)"><g clip-path="url(#cc701b3090)"><g clip-path="url(#7f3df35c73)"><g clip-path="url(#e51880f13e)"><path fill="#00a4ed" d="M 0.28125 0.683594 L 79.960938 0.683594 L 79.960938 92.8125 L 0.28125 92.8125 Z M 0.28125 0.683594 " fill-opacity="1" fill-rule="nonzero"/></g></g></g></g></g><g mask="url(#20ec1e133b)"><g transform="matrix(1, 0, 0, 1, 515, 511)"><g clip-path="url(#251443780b)"><g clip-path="url(#75d7b2e169)"><g clip-path="url(#83892c6888)"><path fill="#00a4ed" d="M 0.28125 0.644531 L 79.960938 0.644531 L 79.960938 92.773438 L 0.28125 92.773438 Z M 0.28125 0.644531 " fill-opacity="1" fill-rule="nonzero"/></g></g></g></g></g><g clip-path="url(#67285d066c)"><g clip-path="url(#562d58b2a7)"><path fill="#00a4ed" d="M 521.363281 298.597656 L 612.074219 298.597656 L 612.074219 401.707031 L 521.363281 401.707031 Z M 521.363281 298.597656 " fill-opacity="1" fill-rule="nonzero"/></g></g><g clip-path="url(#38b8b1610f)"><g clip-path="url(#dbe29a26ea)"><path fill="#00a4ed" d="M 521.363281 298.597656 L 612.074219 298.597656 L 612.074219 401.707031 L 521.363281 401.707031 Z M 521.363281 298.597656 " fill-opacity="1" fill-rule="nonzero"/></g></g><g mask="url(#3aebb2a0c8)"><g transform="matrix(1, 0, 0, 1, 601, 97)"><g clip-path="url(#c9b9328342)"><g clip-path="url(#0df502a2c0)"><g clip-path="url(#c478c7e8a7)"><path fill="#00a4ed" d="M 0.308594 0.410156 L 114.703125 0.410156 L 114.703125 117.039062 L 0.308594 117.039062 Z M 0.308594 0.410156 " fill-opacity="1" fill-rule="nonzero"/></g></g><g clip-path="url(#b2ef7d4c9b)"><g clip-path="url(#45c8ca37b2)"><path fill="#00a4ed" d="M 0.308594 0.410156 L 114.703125 0.410156 L 114.703125 117.039062 L 0.308594 117.039062 Z M 0.308594 0.410156 " fill-opacity="1" fill-rule="nonzero"/></g></g></g></g></g><g mask="url(#494aa851b7)"><g transform="matrix(1, 0, 0, 1, 601, 499)"><g clip-path="url(#d5d52c1ee9)"><g clip-path="url(#542f836349)"><g clip-path="url(#2f747fbd94)"><path fill="#00a4ed" d="M 0.308594 0.375 L 114.703125 0.375 L 114.703125 117 L 0.308594 117 Z M 0.308594 0.375 " fill-opacity="1" fill-rule="nonzero"/></g></g><g clip-path="url(#46b734cd93)"><g clip-path="url(#3846ad69bf)"><path fill="#00a4ed" d="M 0.308594 0.375 L 114.703125 0.375 L 114.703125 117 L 0.308594 117 Z M 0.308594 0.375 " fill-opacity="1" fill-rule="nonzero"/></g></g></g></g></g><g clip-path="url(#8f621bd11c)"><g clip-path="url(#0cf23e9a6a)"><path fill="#00a4ed" d="M 612.390625 291.324219 L 727.816406 291.324219 L 727.816406 409.003906 L 612.390625 409.003906 Z M 612.390625 291.324219 " fill-opacity="1" fill-rule="nonzero"/></g></g><g clip-path="url(#370ffde1f2)"><g clip-path="url(#6974b43c77)"><path fill="#00a4ed" d="M 612.390625 291.324219 L 727.816406 291.324219 L 727.816406 409.003906 L 612.390625 409.003906 Z M 612.390625 291.324219 " fill-opacity="1" fill-rule="nonzero"/></g></g><g clip-path="url(#9683e4af90)"><g clip-path="url(#68001c93ff)"><path fill="#00a4ed" d="M 612.390625 291.324219 L 727.816406 291.324219 L 727.816406 409.003906 L 612.390625 409.003906 Z M 612.390625 291.324219 " fill-opacity="1" fill-rule="nonzero"/></g></g><g clip-path="url(#d14d0b3626)"><g clip-path="url(#6e2191f024)"><path fill="#00a4ed" d="M 612.390625 291.324219 L 727.816406 291.324219 L 727.816406 409.003906 L 612.390625 409.003906 Z M 612.390625 291.324219 " fill-opacity="1" fill-rule="nonzero"/></g></g><g mask="url(#b4c63b4127)"><g transform="matrix(1, 0, 0, 1, 721, 109)"><g clip-path="url(#01042903e2)"><g clip-path="url(#bb6227986a)"><g clip-path="url(#42196f9ddd)"><path fill="#00a4ed" d="M 1.046875 0.683594 L 80.726562 0.683594 L 80.726562 92.8125 L 1.046875 92.8125 Z M 1.046875 0.683594 " fill-opacity="1" fill-rule="nonzero"/></g></g></g></g></g><g mask="url(#b04b4945f2)"><g transform="matrix(1, 0, 0, 1, 721, 511)"><g clip-path="url(#50ae87c61d)"><g clip-path="url(#34503263d5)"><g clip-path="url(#c309f8e6b7)"><path fill="#00a4ed" d="M 1.046875 0.644531 L 80.726562 0.644531 L 80.726562 92.773438 L 1.046875 92.773438 Z M 1.046875 0.644531 " fill-opacity="1" fill-rule="nonzero"/></g></g></g></g></g><g clip-path="url(#92be671981)"><g clip-path="url(#8dfbc4bbde)"><path fill="#00a4ed" d="M 728.128906 298.597656 L 818.839844 298.597656 L 818.839844 401.707031 L 728.128906 401.707031 Z M 728.128906 298.597656 " fill-opacity="1" fill-rule="nonzero"/></g></g><g clip-path="url(#89e1de8783)"><g clip-path="url(#cd630292e5)"><path fill="#00a4ed" d="M 728.128906 298.597656 L 818.839844 298.597656 L 818.839844 401.707031 L 728.128906 401.707031 Z M 728.128906 298.597656 " fill-opacity="1" fill-rule="nonzero"/></g></g><g clip-path="url(#0d9e03b939)"><g clip-path="url(#3d9c40e725)"><path fill="#595757" d="M 455.109375 432.753906 L 884.078125 432.753906 L 884.078125 496.824219 L 455.109375 496.824219 Z M 455.109375 432.753906 " fill-opacity="1" fill-rule="nonzero"/></g></g><g clip-path="url(#2c108f2b01)"><g clip-path="url(#5ac64103a7)"><path fill="#595757" d="M 455.109375 432.753906 L 884.078125 432.753906 L 884.078125 496.824219 L 455.109375 496.824219 Z M 455.109375 432.753906 " fill-opacity="1" fill-rule="nonzero"/></g></g><g clip-path="url(#84ab1bdadf)"><g clip-path="url(#6a8710d97e)"><path fill="#595757" d="M 455.109375 432.753906 L 884.078125 432.753906 L 884.078125 496.824219 L 455.109375 496.824219 Z M 455.109375 432.753906 " fill-opacity="1" fill-rule="nonzero"/></g></g><g clip-path="url(#329d77fad5)"><g clip-path="url(#950734717d)"><path fill="#595757" d="M 455.109375 432.753906 L 884.078125 432.753906 L 884.078125 496.824219 L 455.109375 496.824219 Z M 455.109375 432.753906 " fill-opacity="1" fill-rule="nonzero"/></g></g><g clip-path="url(#0938ded3af)"><g clip-path="url(#8659dacefb)"><path fill="#595757" d="M 455.109375 432.753906 L 884.078125 432.753906 L 884.078125 496.824219 L 455.109375 496.824219 Z M 455.109375 432.753906 " fill-opacity="1" fill-rule="nonzero"/></g></g><g clip-path="url(#9a87b1616b)"><g clip-path="url(#056b0efcc6)"><path fill="#595757" d="M 455.109375 432.753906 L 884.078125 432.753906 L 884.078125 496.824219 L 455.109375 496.824219 Z M 455.109375 432.753906 " fill-opacity="1" fill-rule="nonzero"/></g></g><g clip-path="url(#d69d2eb6cd)"><g clip-path="url(#77e9a182ca)"><path fill="#595757" d="M 455.109375 432.753906 L 884.078125 432.753906 L 884.078125 496.824219 L 455.109375 496.824219 Z M 455.109375 432.753906 " fill-opacity="1" fill-rule="nonzero"/></g></g><g clip-path="url(#38a6d42708)"><g clip-path="url(#d87daed284)"><path fill="#595757" d="M 455.109375 432.753906 L 884.078125 432.753906 L 884.078125 496.824219 L 455.109375 496.824219 Z M 455.109375 432.753906 " fill-opacity="1" fill-rule="nonzero"/></g></g><g clip-path="url(#5e60fdd340)"><g clip-path="url(#06c398754d)"><path fill="#595757" d="M 455.109375 432.753906 L 884.078125 432.753906 L 884.078125 496.824219 L 455.109375 496.824219 Z M 455.109375 432.753906 " fill-opacity="1" fill-rule="nonzero"/></g></g><g clip-path="url(#255489d2de)"><g clip-path="url(#073252ea92)"><path fill="#595757" d="M 455.109375 432.753906 L 884.078125 432.753906 L 884.078125 496.824219 L 455.109375 496.824219 Z M 455.109375 432.753906 " fill-opacity="1" fill-rule="nonzero"/></g></g><g clip-path="url(#8204d62cc7)"><g clip-path="url(#bdfdc6cedf)"><path fill="#595757" d="M 455.109375 432.753906 L 884.078125 432.753906 L 884.078125 496.824219 L 455.109375 496.824219 Z M 455.109375 432.753906 " fill-opacity="1" fill-rule="nonzero"/></g></g><g mask="url(#ed92cb7f21)"><g transform="matrix(1, 0, 0, 1, 885, 109)"><g clip-path="url(#f9c5c82c07)"><g clip-path="url(#230022a7ef)"><g clip-path="url(#4f0d9fe1f1)"><path fill="#00a4ed" d="M 0.945312 0.683594 L 80.625 0.683594 L 80.625 92.8125 L 0.945312 92.8125 Z M 0.945312 0.683594 " fill-opacity="1" fill-rule="nonzero"/></g></g></g></g></g><g mask="url(#3b0b516f14)"><g transform="matrix(1, 0, 0, 1, 891, 504)"><g clip-path="url(#abf240e419)"><g clip-path="url(#5d56e390f3)"><g clip-path="url(#3aa255fdcc)"><path fill="#00a4ed" d="M 0.410156 0.371094 L 80.085938 0.371094 L 80.085938 92.5 L 0.410156 92.5 Z M 0.410156 0.371094 " fill-opacity="1" fill-rule="nonzero"/></g></g></g></g></g><g mask="url(#6c09bab27a)"><g transform="matrix(1, 0, 0, 1, 897, 303)"><g clip-path="url(#ddf21cbe45)"><g clip-path="url(#88adc4c189)"><g clip-path="url(#7358e54b41)"><path fill="#00a4ed" d="M 1.058594 0.59375 L 80.738281 0.59375 L 80.738281 92.722656 L 1.058594 92.722656 Z M 1.058594 0.59375 " fill-opacity="1" fill-rule="nonzero"/></g></g></g></g></g><g mask="url(#53c0db1250)"><g transform="matrix(1, 0, 0, 1, 971, 97)"><g clip-path="url(#ef25cf62f7)"><g clip-path="url(#7fe8a43bf8)"><g clip-path="url(#53623038fd)"><path fill="#00a4ed" d="M 0.972656 0.414062 L 115.367188 0.414062 L 115.367188 117.039062 L 0.972656 117.039062 Z M 0.972656 0.414062 " fill-opacity="1" fill-rule="nonzero"/></g></g><g clip-path="url(#4e6583e183)"><g clip-path="url(#0521dcc317)"><path fill="#00a4ed" d="M 0.972656 0.414062 L 115.367188 0.414062 L 115.367188 117.039062 L 0.972656 117.039062 Z M 0.972656 0.414062 " fill-opacity="1" fill-rule="nonzero"/></g></g></g></g></g><g mask="url(#da3caece2a)"><g transform="matrix(1, 0, 0, 1, 977, 492)"><g clip-path="url(#6eb026e11d)"><g clip-path="url(#9891d85948)"><g clip-path="url(#8037b74b9c)"><path fill="#00a4ed" d="M 0.4375 0.101562 L 114.828125 0.101562 L 114.828125 116.726562 L 0.4375 116.726562 Z M 0.4375 0.101562 " fill-opacity="1" fill-rule="nonzero"/></g></g><g clip-path="url(#ff056fc828)"><g clip-path="url(#8dea9ecd0d)"><path fill="#00a4ed" d="M 0.4375 0.101562 L 114.828125 0.101562 L 114.828125 116.726562 L 0.4375 116.726562 Z M 0.4375 0.101562 " fill-opacity="1" fill-rule="nonzero"/></g></g></g></g></g><g mask="url(#a9f5040391)"><g transform="matrix(1, 0, 0, 1, 983, 291)"><g clip-path="url(#96f60d642b)"><g clip-path="url(#9d7902fbc2)"><g clip-path="url(#f17af80744)"><path fill="#00a4ed" d="M 1.085938 0.324219 L 115.480469 0.324219 L 115.480469 116.953125 L 1.085938 116.953125 Z M 1.085938 0.324219 " fill-opacity="1" fill-rule="nonzero"/></g></g><g clip-path="url(#bff900b891)"><g clip-path="url(#3df5faee10)"><path fill="#00a4ed" d="M 1.085938 0.324219 L 115.480469 0.324219 L 115.480469 116.953125 L 1.085938 116.953125 Z M 1.085938 0.324219 " fill-opacity="1" fill-rule="nonzero"/></g></g></g></g></g><g mask="url(#ba466934a3)"><g transform="matrix(1, 0, 0, 1, 1092, 109)"><g clip-path="url(#77e7e5871c)"><g clip-path="url(#bd8ebab7b2)"><g clip-path="url(#df39a13ae1)"><path fill="#00a4ed" d="M 0.710938 0.683594 L 80.386719 0.683594 L 80.386719 92.808594 L 0.710938 92.808594 Z M 0.710938 0.683594 " fill-opacity="1" fill-rule="nonzero"/></g></g></g></g></g><g mask="url(#beed597447)"><g transform="matrix(1, 0, 0, 1, 1098, 504)"><g clip-path="url(#48d04062df)"><g clip-path="url(#2b9c6a4fe2)"><g clip-path="url(#018ce1378e)"><path fill="#00a4ed" d="M 0.175781 0.371094 L 79.855469 0.371094 L 79.855469 92.5 L 0.175781 92.5 Z M 0.175781 0.371094 " fill-opacity="1" fill-rule="nonzero"/></g></g></g></g></g><g mask="url(#5b7a14221a)"><g transform="matrix(1, 0, 0, 1, 1104, 303)"><g clip-path="url(#6e8ade9aab)"><g clip-path="url(#747f8a1175)"><g clip-path="url(#a3f59da27b)"><path fill="#00a4ed" d="M 0.828125 0.597656 L 80.503906 0.597656 L 80.503906 92.71875 L 0.828125 92.71875 Z M 0.828125 0.597656 " fill-opacity="1" fill-rule="nonzero"/></g></g></g></g></g><g fill="#000000" fill-opacity="1"><g transform="translate(354.087248, 274.76107)"><g><path d="M 2.929688 -39.238281 L 2.929688 -29.984375 L 32.914062 -29.984375 L 32.914062 -24.246094 L 2.929688 -24.246094 L 2.929688 0 L 42.167969 0 L 42.167969 -9.253906 L 12.179688 -9.253906 L 12.179688 -14.992188 L 42.167969 -14.992188 L 42.167969 -39.238281 Z M 2.929688 -39.238281 "/></g></g></g><g fill="#000000" fill-opacity="1"><g transform="translate(397.859994, 274.76107)"><g><path d="M 2.929688 0 L 42.167969 0 L 42.167969 -39.238281 L 2.929688 -39.238281 Z M 12.179688 -9.253906 L 12.179688 -29.984375 L 32.914062 -29.984375 L 32.914062 -9.253906 Z M 12.179688 -9.253906 "/></g></g></g><g fill="#000000" fill-opacity="1"><g transform="translate(441.632741, 274.76107)"><g><path d="M 2.929688 -39.238281 L 2.929688 -29.984375 L 32.914062 -29.984375 L 32.914062 -24.246094 L 2.929688 -24.246094 L 2.929688 0 L 42.167969 0 L 42.167969 -9.253906 L 12.179688 -9.253906 L 12.179688 -14.992188 L 42.167969 -14.992188 L 42.167969 -39.238281 Z M 2.929688 -39.238281 "/></g></g></g><g fill="#000000" fill-opacity="1"><g transform="translate(485.405485, 274.76107)"><g><path d="M 12.179688 -39.238281 L 2.929688 -39.238281 L 2.929688 -14.992188 L 32.914062 -14.992188 L 32.914062 0 L 42.167969 0 L 42.167969 -39.238281 L 32.914062 -39.238281 L 32.914062 -24.246094 L 12.179688 -24.246094 Z M 12.179688 -39.238281 "/></g></g></g><g fill="#000000" fill-opacity="1"><g transform="translate(529.178233, 274.76107)"><g><path d="M 2.929688 0 L 14.464844 0 L 37.597656 -39.238281 L 26.355469 -39.238281 Z M 2.929688 0 "/></g></g></g><g fill="#000000" fill-opacity="1"><g transform="translate(568.383183, 274.76107)"><g><path d="M 2.929688 0 L 42.167969 0 L 42.167969 -39.238281 L 2.929688 -39.238281 Z M 12.179688 -9.253906 L 12.179688 -29.984375 L 32.914062 -29.984375 L 32.914062 -9.253906 Z M 12.179688 -9.253906 "/></g></g></g><g fill="#000000" fill-opacity="1"><g transform="translate(612.155932, 274.76107)"><g><path d="M 12.179688 -39.238281 L 2.929688 -39.238281 L 2.929688 -14.992188 L 32.914062 -14.992188 L 32.914062 0 L 42.167969 0 L 42.167969 -39.238281 L 32.914062 -39.238281 L 32.914062 -24.246094 L 12.179688 -24.246094 Z M 12.179688 -39.238281 "/></g></g></g><g fill="#000000" fill-opacity="1"><g transform="translate(655.928681, 274.76107)"><g><path d="M 2.929688 0 L 14.464844 0 L 37.597656 -39.238281 L 26.355469 -39.238281 Z M 2.929688 0 "/></g></g></g><g fill="#000000" fill-opacity="1"><g transform="translate(695.133643, 274.76107)"><g><path d="M 2.929688 -39.238281 L 2.929688 -29.984375 L 32.914062 -29.984375 L 32.914062 -24.246094 L 2.929688 -24.246094 L 2.929688 0 L 42.167969 0 L 42.167969 -9.253906 L 12.179688 -9.253906 L 12.179688 -14.992188 L 42.167969 -14.992188 L 42.167969 -39.238281 Z M 2.929688 -39.238281 "/></g></g></g><g fill="#000000" fill-opacity="1"><g transform="translate(738.90637, 274.76107)"><g><path d="M 2.929688 0 L 42.167969 0 L 42.167969 -39.238281 L 2.929688 -39.238281 Z M 12.179688 -9.253906 L 12.179688 -29.984375 L 32.914062 -29.984375 L 32.914062 -9.253906 Z M 12.179688 -9.253906 "/></g></g></g><g fill="#000000" fill-opacity="1"><g transform="translate(782.679118, 274.76107)"><g/></g></g><g fill="#000000" fill-opacity="1"><g transform="translate(816.49641, 274.76107)"><g><path d="M 2.929688 -9.253906 L 2.929688 0 L 42.167969 0 L 42.167969 -24.246094 L 12.179688 -24.246094 L 12.179688 -29.984375 L 42.167969 -29.984375 L 42.167969 -39.238281 L 2.929688 -39.238281 L 2.929688 -14.992188 L 32.914062 -14.992188 L 32.914062 -9.253906 Z M 2.929688 -9.253906 "/></g></g></g><g fill="#000000" fill-opacity="1"><g transform="translate(860.269159, 274.76107)"><g><path d="M 42.167969 -39.238281 L 2.929688 -39.238281 L 2.929688 0 L 12.179688 0 L 12.179688 -7.496094 L 32.914062 -7.496094 L 32.914062 0 L 42.167969 0 Z M 12.179688 -16.75 L 12.179688 -29.984375 L 32.914062 -29.984375 L 32.914062 -16.75 Z M 12.179688 -16.75 "/></g></g></g><g fill="#000000" fill-opacity="1"><g transform="translate(904.041908, 274.76107)"><g><path d="M 2.929688 -39.238281 L 2.929688 -29.984375 L 17.921875 -29.984375 L 17.921875 0 L 27.175781 0 L 27.175781 -29.984375 L 42.167969 -29.984375 L 42.167969 -39.238281 Z M 2.929688 -39.238281 "/></g></g></g><g fill="#000000" fill-opacity="1"><g transform="translate(947.814657, 274.76107)"><g><path d="M 2.929688 0 L 12.179688 0 L 12.179688 -9.253906 L 2.929688 -9.253906 Z M 2.929688 0 "/></g></g></g></svg>