<svg xmlns="http://www.w3.org/2000/svg" xmlns:xlink="http://www.w3.org/1999/xlink" width="700" zoomAndPan="magnify" viewBox="0 0 525 697.499984" height="930" preserveAspectRatio="xMidYMid meet" version="1.0"><defs><filter x="0%" y="0%" width="100%" height="100%" id="34a3f86095"><feColorMatrix values="0 0 0 0 1 0 0 0 0 1 0 0 0 0 1 0 0 0 1 0" color-interpolation-filters="sRGB"/></filter><g/><mask id="402e2f6f7c"><g filter="url(#34a3f86095)"><rect x="-52.5" width="630" fill="#000000" y="-69.749998" height="836.999981" fill-opacity="0.3"/></g></mask><clipPath id="a105eb4050"><path d="M 0.328125 0.726562 L 80 0.726562 L 80 92.824219 L 0.328125 92.824219 Z M 0.328125 0.726562 " clip-rule="nonzero"/></clipPath><clipPath id="291895695c"><path d="M 79.980469 0.726562 L 0.328125 46.714844 L 79.980469 92.703125 L 79.980469 73.484375 L 33.613281 46.714844 L 79.980469 19.945312 Z M 79.980469 0.726562 " clip-rule="nonzero"/></clipPath><clipPath id="3f38f0eee9"><rect x="0" width="81" y="0" height="93"/></clipPath><mask id="2dbce7eaf0"><g filter="url(#34a3f86095)"><rect x="-52.5" width="630" fill="#000000" y="-69.749998" height="836.999981" fill-opacity="0.3"/></g></mask><clipPath id="5cecea7bcc"><path d="M 5.238281 5.375 L 97.703125 5.375 L 97.703125 85.332031 L 5.238281 85.332031 Z M 5.238281 5.375 " clip-rule="nonzero"/></clipPath><clipPath id="f2e923263f"><path d="M 51.308594 51.824219 L 24.539062 5.457031 L 5.320312 5.457031 L 51.308594 85.113281 L 97.296875 5.457031 L 78.078125 5.457031 Z M 51.308594 51.824219 " clip-rule="nonzero"/></clipPath><clipPath id="0d6766ebce"><path d="M 55.714844 51 L 109.765625 51 L 109.765625 112 L 55.714844 112 Z M 55.714844 51 " clip-rule="nonzero"/></clipPath><clipPath id="383f41377e"><path d="M 90.460938 51.136719 L 55.785156 111.972656 L 75.011719 111.972656 L 109.6875 51.125 Z M 90.460938 51.136719 " clip-rule="nonzero"/></clipPath><clipPath id="77bf24d5fd"><rect x="0" width="115" y="0" height="118"/></clipPath><mask id="5b61907ad7"><g filter="url(#34a3f86095)"><rect x="-52.5" width="630" fill="#000000" y="-69.749998" height="836.999981" fill-opacity="0.3"/></g></mask><clipPath id="27cc5c9b46"><path d="M 1.019531 0.730469 L 80.738281 0.730469 L 80.738281 92.824219 L 1.019531 92.824219 Z M 1.019531 0.730469 " clip-rule="nonzero"/></clipPath><clipPath id="0d9ec9fd2e"><path d="M 1.019531 0.730469 L 1.019531 19.945312 L 47.386719 46.71875 L 1.019531 73.488281 L 1.019531 92.703125 L 80.675781 46.71875 Z M 1.019531 0.730469 " clip-rule="nonzero"/></clipPath><clipPath id="5980f1907d"><rect x="0" width="81" y="0" height="93"/></clipPath><mask id="7acdfcefbc"><g filter="url(#34a3f86095)"><rect x="-52.5" width="630" fill="#000000" y="-69.749998" height="836.999981" fill-opacity="0.3"/></g></mask><clipPath id="686f411c7c"><path d="M 0.328125 1.105469 L 80 1.105469 L 80 93.203125 L 0.328125 93.203125 Z M 0.328125 1.105469 " clip-rule="nonzero"/></clipPath><clipPath id="c96967f005"><path d="M 79.980469 1.105469 L 0.328125 47.09375 L 79.980469 93.078125 L 79.980469 73.863281 L 33.613281 47.09375 L 79.980469 20.320312 Z M 79.980469 1.105469 " clip-rule="nonzero"/></clipPath><clipPath id="225405fc56"><rect x="0" width="81" y="0" height="94"/></clipPath><mask id="9693f760c2"><g filter="url(#34a3f86095)"><rect x="-52.5" width="630" fill="#000000" y="-69.749998" height="836.999981" fill-opacity="0.3"/></g></mask><clipPath id="5dd8477150"><path d="M 5.238281 5.753906 L 97.703125 5.753906 L 97.703125 85.710938 L 5.238281 85.710938 Z M 5.238281 5.753906 " clip-rule="nonzero"/></clipPath><clipPath id="2d8ab80a8c"><path d="M 51.308594 52.203125 L 24.539062 5.835938 L 5.320312 5.835938 L 51.308594 85.488281 L 97.296875 5.835938 L 78.078125 5.835938 Z M 51.308594 52.203125 " clip-rule="nonzero"/></clipPath><clipPath id="9022cc4797"><path d="M 55.714844 51.316406 L 109.765625 51.316406 L 109.765625 112.511719 L 55.714844 112.511719 Z M 55.714844 51.316406 " clip-rule="nonzero"/></clipPath><clipPath id="f518921854"><path d="M 90.460938 51.515625 L 55.785156 112.351562 L 75.011719 112.351562 L 109.6875 51.503906 Z M 90.460938 51.515625 " clip-rule="nonzero"/></clipPath><clipPath id="86adc18af5"><rect x="0" width="115" y="0" height="118"/></clipPath><mask id="246cf41b1f"><g filter="url(#34a3f86095)"><rect x="-52.5" width="630" fill="#000000" y="-69.749998" height="836.999981" fill-opacity="0.3"/></g></mask><clipPath id="7fd40b603a"><path d="M 1.019531 1.105469 L 80.738281 1.105469 L 80.738281 93.203125 L 1.019531 93.203125 Z M 1.019531 1.105469 " clip-rule="nonzero"/></clipPath><clipPath id="57c80ff2e8"><path d="M 1.019531 1.105469 L 1.019531 20.324219 L 47.386719 47.09375 L 1.019531 73.863281 L 1.019531 93.082031 L 80.675781 47.09375 Z M 1.019531 1.105469 " clip-rule="nonzero"/></clipPath><clipPath id="9a20bbfa5d"><rect x="0" width="81" y="0" height="94"/></clipPath><clipPath id="b2e210bbf3"><path d="M 118.773438 311.886719 L 198.472656 311.886719 L 198.472656 403.980469 L 118.773438 403.980469 Z M 118.773438 311.886719 " clip-rule="nonzero"/></clipPath><clipPath id="24ef1d243b"><path d="M 152.097656 357.929688 L 198.464844 331.15625 L 198.464844 311.941406 L 118.8125 357.929688 L 198.464844 403.914062 L 198.464844 384.6875 Z M 152.097656 357.929688 " clip-rule="nonzero"/></clipPath><clipPath id="7ce6fd843c"><path d="M 119.835938 310.824219 L 199.535156 310.824219 L 199.535156 402.917969 L 119.835938 402.917969 Z M 119.835938 310.824219 " clip-rule="nonzero"/></clipPath><clipPath id="1fbbb92286"><path d="M 153.136719 356.847656 L 199.492188 330.078125 L 199.492188 310.863281 L 119.839844 356.847656 L 199.492188 402.835938 L 199.492188 383.621094 Z M 153.136719 356.847656 " clip-rule="nonzero"/></clipPath><clipPath id="9f4249876f"><path d="M 209.765625 304.453125 L 302 304.453125 L 302 384.683594 L 209.765625 384.683594 Z M 209.765625 304.453125 " clip-rule="nonzero"/></clipPath><clipPath id="34490459bb"><path d="M 255.792969 351.027344 L 229.019531 304.671875 L 209.804688 304.671875 L 255.792969 384.3125 L 301.777344 304.671875 L 282.5625 304.671875 Z M 255.792969 351.027344 " clip-rule="nonzero"/></clipPath><clipPath id="df6763358d"><path d="M 260.246094 350 L 314.335938 350 L 314.335938 411.277344 L 260.246094 411.277344 Z M 260.246094 350 " clip-rule="nonzero"/></clipPath><clipPath id="23c961e50c"><path d="M 314.160156 350.339844 L 294.945312 350.339844 L 260.269531 411.183594 L 279.496094 411.183594 Z M 314.160156 350.339844 " clip-rule="nonzero"/></clipPath><clipPath id="089a1a466f"><path d="M 210.667969 303.554688 L 303 303.554688 L 303 383.332031 L 210.667969 383.332031 Z M 210.667969 303.554688 " clip-rule="nonzero"/></clipPath><clipPath id="a5f9cef871"><path d="M 256.820312 349.957031 L 230.058594 303.59375 L 210.84375 303.59375 L 256.820312 383.246094 L 302.808594 303.59375 L 283.59375 303.59375 Z M 256.820312 349.957031 " clip-rule="nonzero"/></clipPath><clipPath id="2ad41442f6"><path d="M 261.148438 349.078125 L 315.238281 349.078125 L 315.238281 410.375 L 261.148438 410.375 Z M 261.148438 349.078125 " clip-rule="nonzero"/></clipPath><clipPath id="c0c16bfaef"><path d="M 295.984375 349.269531 L 261.308594 410.113281 L 280.523438 410.113281 L 315.199219 349.269531 Z M 295.984375 349.269531 " clip-rule="nonzero"/></clipPath><clipPath id="71675fdc39"><path d="M 325.46875 311.886719 L 405.164062 311.886719 L 405.164062 403.980469 L 325.46875 403.980469 Z M 325.46875 311.886719 " clip-rule="nonzero"/></clipPath><clipPath id="46562ee4a6"><path d="M 371.871094 357.917969 L 325.503906 331.15625 L 325.503906 311.941406 L 405.15625 357.917969 L 325.503906 403.90625 L 325.503906 384.6875 Z M 371.871094 357.917969 " clip-rule="nonzero"/></clipPath><clipPath id="19068dbaef"><path d="M 326.53125 310.824219 L 406.226562 310.824219 L 406.226562 402.917969 L 326.53125 402.917969 Z M 326.53125 310.824219 " clip-rule="nonzero"/></clipPath><clipPath id="73f58be066"><path d="M 326.535156 310.863281 L 326.535156 330.078125 L 372.902344 356.847656 L 326.535156 383.621094 L 326.535156 402.835938 L 406.1875 356.847656 Z M 326.535156 310.863281 " clip-rule="nonzero"/></clipPath><clipPath id="a0646da546"><path d="M 53 425.742188 L 94.636719 425.742188 L 94.636719 477 L 53 477 Z M 53 425.742188 " clip-rule="nonzero"/></clipPath><clipPath id="57ed1a2337"><path d="M 94.617188 425.800781 L 79.097656 476.804688 L 67.886719 476.804688 L 53.097656 425.800781 L 63.839844 425.800781 L 69.605469 448.355469 C 71.132812 454.390625 72.652344 460.496094 73.722656 466.660156 L 73.921875 466.660156 L 78.167969 448.355469 L 84.066406 425.800781 Z M 94.617188 425.800781 " clip-rule="nonzero"/></clipPath><clipPath id="adb4eede28"><path d="M 97.386719 425 L 128.910156 425 L 128.910156 477.527344 L 97.386719 477.527344 Z M 97.386719 425 " clip-rule="nonzero"/></clipPath><clipPath id="0896fda49d"><path d="M 124.726562 435.421875 C 122.9375 434.496094 119.820312 433.234375 115.640625 433.234375 C 110.464844 433.234375 108.148438 436.023438 108.148438 438.871094 C 108.148438 442.519531 110.667969 444.175781 116.902344 447.027344 C 125.066406 450.671875 128.714844 455.378906 128.714844 462.085938 C 128.714844 470.96875 122.007812 477.472656 110.136719 477.472656 C 105.101562 477.472656 99.992188 476.085938 97.605469 474.625 L 99.523438 466.402344 C 102.183594 468 106.417969 469.257812 110.535156 469.257812 C 115.972656 469.257812 118.832031 466.671875 118.832031 462.894531 C 118.832031 459.246094 116.371094 457.058594 110.734375 454.601562 C 103.042969 451.28125 98.265625 446.503906 98.265625 439.878906 C 98.265625 431.527344 104.832031 425.089844 115.84375 425.089844 C 120.6875 425.089844 124.394531 426.21875 126.785156 427.410156 Z M 124.726562 435.421875 " clip-rule="nonzero"/></clipPath><clipPath id="1bb6ba4b6c"><path d="M 133.664062 425 L 169.441406 425 L 169.441406 477.527344 L 133.664062 477.527344 Z M 133.664062 425 " clip-rule="nonzero"/></clipPath><clipPath id="03a9fbe90e"><path d="M 168.753906 475.542969 C 166.835938 476.472656 162.71875 477.464844 157.480469 477.464844 C 142.164062 477.464844 133.667969 467.050781 133.667969 451.933594 C 133.667969 434.085938 145.140625 425.070312 158.671875 425.070312 C 164.175781 425.070312 167.753906 426.199219 169.214844 426.988281 L 167.296875 434.945312 C 165.308594 434.085938 162.648438 433.285156 159.132812 433.285156 C 150.707031 433.285156 143.941406 439.050781 143.941406 451.390625 C 143.941406 462.933594 149.847656 469.097656 159.070312 469.097656 C 162.117188 469.097656 165.367188 468.5 167.355469 467.640625 Z M 168.753906 475.542969 " clip-rule="nonzero"/></clipPath><clipPath id="88ac7f3ecd"><path d="M 173.191406 439 L 207.71875 439 L 207.71875 477.527344 L 173.191406 477.527344 Z M 173.191406 439 " clip-rule="nonzero"/></clipPath><clipPath id="e1c4e378d2"><path d="M 190.578125 446.296875 C 185.140625 446.296875 183.214844 452.660156 183.214844 458.296875 C 183.214844 464.863281 185.730469 470.296875 190.507812 470.296875 C 195.144531 470.296875 197.671875 464.792969 197.671875 458.226562 C 197.671875 452.453125 195.613281 446.285156 190.578125 446.285156 M 207.625 458.027344 C 207.625 472.085938 198.601562 477.523438 190.378906 477.523438 C 180.425781 477.523438 173.261719 470.488281 173.261719 458.488281 C 173.261719 446.085938 180.753906 439.050781 190.769531 439.050781 C 201.109375 439.050781 207.617188 446.804688 207.617188 458.015625 " clip-rule="nonzero"/></clipPath><clipPath id="eab3aeed8e"><path d="M 212.722656 423.238281 L 246.996094 423.238281 L 246.996094 477.78125 L 212.722656 477.78125 Z M 212.722656 423.238281 " clip-rule="nonzero"/></clipPath><clipPath id="658c105f90"><path d="M 236.664062 454.917969 C 236.664062 449.542969 233.417969 446.894531 230.160156 446.894531 C 225.125 446.894531 222.59375 452.070312 222.59375 458.507812 C 222.59375 465.203125 225.382812 469.648438 230.019531 469.648438 C 232.9375 469.648438 236.65625 467.53125 236.65625 461.695312 Z M 246.476562 466.261719 C 246.476562 469.980469 246.609375 474.097656 246.746094 476.804688 L 238.125 476.804688 L 237.664062 471.566406 L 237.464844 471.566406 C 235.535156 475.214844 231.558594 477.542969 227.050781 477.542969 C 218.699219 477.542969 212.722656 469.847656 212.722656 458.636719 C 212.722656 446.035156 219.6875 439.140625 227.640625 439.140625 C 231.957031 439.140625 235.066406 440.929688 236.523438 443.457031 L 236.65625 443.457031 L 236.65625 423.480469 L 246.46875 423.480469 Z M 246.476562 466.261719 " clip-rule="nonzero"/></clipPath><clipPath id="1322155cf3"><path d="M 253.25 439 L 285.273438 439 L 285.273438 477.527344 L 253.25 477.527344 Z M 253.25 439 " clip-rule="nonzero"/></clipPath><clipPath id="a4dd2f9970"><path d="M 275.996094 454.460938 C 276.066406 450.613281 274.539062 445.90625 269.691406 445.90625 C 264.984375 445.90625 262.996094 450.8125 262.726562 454.460938 Z M 283.222656 475.34375 C 280.175781 476.675781 275.855469 477.464844 271.28125 477.464844 C 259.867188 477.464844 253.375 470.296875 253.375 458.828125 C 253.375 448.214844 259.480469 439.0625 270.28125 439.0625 C 279.234375 439.0625 285.070312 445.425781 285.070312 457.367188 C 285.070312 458.828125 285 460.214844 284.8125 461.273438 L 262.726562 461.273438 C 262.984375 467.582031 267.503906 470.097656 272.808594 470.097656 C 276.457031 470.097656 279.316406 469.4375 281.832031 468.578125 Z M 283.222656 475.34375 " clip-rule="nonzero"/></clipPath><clipPath id="306e63f29c"><path d="M 289.777344 425 L 325.554688 425 L 325.554688 477.527344 L 289.777344 477.527344 Z M 289.777344 425 " clip-rule="nonzero"/></clipPath><clipPath id="8ea6d5667f"><path d="M 325 475.542969 C 323.074219 476.472656 318.964844 477.464844 313.730469 477.464844 C 298.410156 477.464844 289.917969 467.050781 289.917969 451.933594 C 289.917969 434.085938 301.386719 425.070312 314.917969 425.070312 C 320.425781 425.070312 324.003906 426.199219 325.460938 426.988281 L 323.542969 434.945312 C 321.554688 434.085938 318.894531 433.285156 315.378906 433.285156 C 306.953125 433.285156 300.191406 439.050781 300.191406 451.390625 C 300.191406 462.933594 306.085938 469.097656 315.308594 469.097656 C 318.355469 469.097656 321.605469 468.5 323.59375 467.640625 Z M 325 475.542969 " clip-rule="nonzero"/></clipPath><clipPath id="c0fb486c8b"><path d="M 329.308594 439 L 364 439 L 364 477.78125 L 329.308594 477.78125 Z M 329.308594 439 " clip-rule="nonzero"/></clipPath><clipPath id="199abd277b"><path d="M 346.824219 446.296875 C 341.390625 446.296875 339.460938 452.660156 339.460938 458.296875 C 339.460938 464.863281 341.980469 470.296875 346.757812 470.296875 C 351.402344 470.296875 353.921875 464.792969 353.921875 458.226562 C 353.921875 452.453125 351.863281 446.285156 346.824219 446.285156 M 363.875 458.039062 C 363.875 472.097656 354.851562 477.535156 346.625 477.535156 C 336.671875 477.535156 329.519531 470.5 329.519531 458.496094 C 329.519531 446.097656 337.011719 439.0625 347.027344 439.0625 C 357.378906 439.0625 363.875 446.816406 363.875 458.027344 " clip-rule="nonzero"/></clipPath><clipPath id="ab38ccb640"><path d="M 370.585938 439 L 402.609375 439 L 402.609375 477 L 370.585938 477 Z M 370.585938 439 " clip-rule="nonzero"/></clipPath><clipPath id="1f26c7f84b"><path d="M 402.527344 476.804688 L 392.710938 476.804688 L 392.710938 455.25 C 392.710938 450.742188 391.253906 447.15625 387.078125 447.15625 C 384.417969 447.15625 380.78125 449.214844 380.78125 454.851562 L 380.78125 476.804688 L 370.957031 476.804688 L 370.957031 451.003906 C 370.957031 446.695312 370.828125 443.179688 370.699219 439.929688 L 379.183594 439.929688 L 379.652344 444.90625 L 379.851562 444.90625 C 381.511719 442.1875 385.160156 439.132812 390.523438 439.132812 C 397.289062 439.132812 402.527344 443.835938 402.527344 454.191406 Z M 402.527344 476.804688 " clip-rule="nonzero"/></clipPath><clipPath id="6de44c01ea"><path d="M 406.613281 425.742188 L 429.878906 425.742188 L 429.878906 477.78125 L 406.613281 477.78125 Z M 406.613281 425.742188 " clip-rule="nonzero"/></clipPath><clipPath id="c295622f07"><path d="M 429.855469 459.367188 C 429.855469 473.425781 423.089844 477.542969 413.609375 477.542969 C 411.289062 477.542969 408.429688 477.144531 406.710938 476.542969 L 407.773438 468.519531 C 409.03125 468.917969 410.761719 469.25 412.679688 469.25 C 417.125 469.25 420.042969 467.261719 420.042969 459.296875 L 420.042969 425.800781 L 429.855469 425.800781 Z M 429.855469 459.367188 " clip-rule="nonzero"/></clipPath><clipPath id="397318e911"><path d="M 439.136719 425.242188 L 471.910156 425.242188 L 471.910156 477 L 439.136719 477 Z M 439.136719 425.242188 " clip-rule="nonzero"/></clipPath><clipPath id="54af271e37"><path d="M 449.011719 450.011719 C 449.941406 450.214844 451 450.28125 452.460938 450.28125 C 458.566406 450.28125 462.144531 446.835938 462.144531 441.328125 C 462.144531 435.894531 458.695312 433.035156 453.257812 433.035156 C 451.269531 433.035156 449.871094 433.234375 449.011719 433.433594 Z M 439.269531 426.460938 C 442.445312 425.859375 446.832031 425.402344 452.46875 425.402344 C 458.90625 425.402344 463.742188 426.660156 467 429.449219 C 470.046875 432.035156 471.90625 436.152344 471.90625 440.859375 C 471.90625 454.851562 460.234375 457.96875 452.601562 457.96875 L 449.011719 457.699219 L 449.011719 476.804688 L 439.257812 476.804688 Z M 439.269531 426.460938 " clip-rule="nonzero"/></clipPath></defs><g mask="url(#402e2f6f7c)"><g transform="matrix(1, 0, 0, 1, 119, 64)"><g clip-path="url(#3f38f0eee9)"><g clip-path="url(#a105eb4050)"><g clip-path="url(#291895695c)"><path fill="#00a4ed" d="M 0.328125 0.726562 L 79.980469 0.726562 L 79.980469 92.824219 L 0.328125 92.824219 Z M 0.328125 0.726562 " fill-opacity="1" fill-rule="nonzero"/></g></g></g></g></g><g mask="url(#2dbce7eaf0)"><g transform="matrix(1, 0, 0, 1, 205, 52)"><g clip-path="url(#77bf24d5fd)"><g clip-path="url(#5cecea7bcc)"><g clip-path="url(#f2e923263f)"><path fill="#00a4ed" d="M 0.324219 0.460938 L 114.679688 0.460938 L 114.679688 117.046875 L 0.324219 117.046875 Z M 0.324219 0.460938 " fill-opacity="1" fill-rule="nonzero"/></g></g><g clip-path="url(#0d6766ebce)"><g clip-path="url(#383f41377e)"><path fill="#00a4ed" d="M 0.324219 0.460938 L 114.679688 0.460938 L 114.679688 117.046875 L 0.324219 117.046875 Z M 0.324219 0.460938 " fill-opacity="1" fill-rule="nonzero"/></g></g></g></g></g><g mask="url(#5b61907ad7)"><g transform="matrix(1, 0, 0, 1, 325, 64)"><g clip-path="url(#5980f1907d)"><g clip-path="url(#27cc5c9b46)"><g clip-path="url(#0d9ec9fd2e)"><path fill="#00a4ed" d="M 1.019531 0.730469 L 80.671875 0.730469 L 80.671875 92.824219 L 1.019531 92.824219 Z M 1.019531 0.730469 " fill-opacity="1" fill-rule="nonzero"/></g></g></g></g></g><g mask="url(#7acdfcefbc)"><g transform="matrix(1, 0, 0, 1, 119, 496)"><g clip-path="url(#225405fc56)"><g clip-path="url(#686f411c7c)"><g clip-path="url(#c96967f005)"><path fill="#00a4ed" d="M 0.328125 1.105469 L 79.980469 1.105469 L 79.980469 93.203125 L 0.328125 93.203125 Z M 0.328125 1.105469 " fill-opacity="1" fill-rule="nonzero"/></g></g></g></g></g><g mask="url(#9693f760c2)"><g transform="matrix(1, 0, 0, 1, 205, 484)"><g clip-path="url(#86adc18af5)"><g clip-path="url(#5dd8477150)"><g clip-path="url(#2d8ab80a8c)"><path fill="#00a4ed" d="M 0.324219 0.839844 L 114.679688 0.839844 L 114.679688 117.425781 L 0.324219 117.425781 Z M 0.324219 0.839844 " fill-opacity="1" fill-rule="nonzero"/></g></g><g clip-path="url(#9022cc4797)"><g clip-path="url(#f518921854)"><path fill="#00a4ed" d="M 0.324219 0.839844 L 114.679688 0.839844 L 114.679688 117.425781 L 0.324219 117.425781 Z M 0.324219 0.839844 " fill-opacity="1" fill-rule="nonzero"/></g></g></g></g></g><g mask="url(#246cf41b1f)"><g transform="matrix(1, 0, 0, 1, 325, 496)"><g clip-path="url(#9a20bbfa5d)"><g clip-path="url(#7fd40b603a)"><g clip-path="url(#57c80ff2e8)"><path fill="#00a4ed" d="M 1.019531 1.105469 L 80.671875 1.105469 L 80.671875 93.203125 L 1.019531 93.203125 Z M 1.019531 1.105469 " fill-opacity="1" fill-rule="nonzero"/></g></g></g></g></g><g clip-path="url(#b2e210bbf3)"><g clip-path="url(#24ef1d243b)"><path fill="#00a4ed" d="M 113.816406 305.867188 L 204.492188 305.867188 L 204.492188 408.9375 L 113.816406 408.9375 Z M 113.816406 305.867188 " fill-opacity="1" fill-rule="nonzero"/></g></g><g clip-path="url(#7ce6fd843c)"><g clip-path="url(#1fbbb92286)"><path fill="#00a4ed" d="M 113.816406 305.867188 L 204.492188 305.867188 L 204.492188 408.9375 L 113.816406 408.9375 Z M 113.816406 305.867188 " fill-opacity="1" fill-rule="nonzero"/></g></g><g clip-path="url(#9f4249876f)"><g clip-path="url(#34490459bb)"><path fill="#00a4ed" d="M 204.808594 298.59375 L 320.195312 298.59375 L 320.195312 416.234375 L 204.808594 416.234375 Z M 204.808594 298.59375 " fill-opacity="1" fill-rule="nonzero"/></g></g><g clip-path="url(#df6763358d)"><g clip-path="url(#23c961e50c)"><path fill="#00a4ed" d="M 204.808594 298.59375 L 320.195312 298.59375 L 320.195312 416.234375 L 204.808594 416.234375 Z M 204.808594 298.59375 " fill-opacity="1" fill-rule="nonzero"/></g></g><g clip-path="url(#089a1a466f)"><g clip-path="url(#a5f9cef871)"><path fill="#00a4ed" d="M 204.808594 298.59375 L 320.195312 298.59375 L 320.195312 416.234375 L 204.808594 416.234375 Z M 204.808594 298.59375 " fill-opacity="1" fill-rule="nonzero"/></g></g><g clip-path="url(#2ad41442f6)"><g clip-path="url(#c0c16bfaef)"><path fill="#00a4ed" d="M 204.808594 298.59375 L 320.195312 298.59375 L 320.195312 416.234375 L 204.808594 416.234375 Z M 204.808594 298.59375 " fill-opacity="1" fill-rule="nonzero"/></g></g><g clip-path="url(#71675fdc39)"><g clip-path="url(#46562ee4a6)"><path fill="#00a4ed" d="M 320.507812 305.867188 L 411.183594 305.867188 L 411.183594 408.9375 L 320.507812 408.9375 Z M 320.507812 305.867188 " fill-opacity="1" fill-rule="nonzero"/></g></g><g clip-path="url(#19068dbaef)"><g clip-path="url(#73f58be066)"><path fill="#00a4ed" d="M 320.507812 305.867188 L 411.183594 305.867188 L 411.183594 408.9375 L 320.507812 408.9375 Z M 320.507812 305.867188 " fill-opacity="1" fill-rule="nonzero"/></g></g><g clip-path="url(#a0646da546)"><g clip-path="url(#57ed1a2337)"><path fill="#595757" d="M 48.101562 418.484375 L 476.914062 418.484375 L 476.914062 482.53125 L 48.101562 482.53125 Z M 48.101562 418.484375 " fill-opacity="1" fill-rule="nonzero"/></g></g><g clip-path="url(#adb4eede28)"><g clip-path="url(#0896fda49d)"><path fill="#595757" d="M 48.101562 418.484375 L 476.914062 418.484375 L 476.914062 482.53125 L 48.101562 482.53125 Z M 48.101562 418.484375 " fill-opacity="1" fill-rule="nonzero"/></g></g><g clip-path="url(#1bb6ba4b6c)"><g clip-path="url(#03a9fbe90e)"><path fill="#595757" d="M 48.101562 418.484375 L 476.914062 418.484375 L 476.914062 482.53125 L 48.101562 482.53125 Z M 48.101562 418.484375 " fill-opacity="1" fill-rule="nonzero"/></g></g><g clip-path="url(#88ac7f3ecd)"><g clip-path="url(#e1c4e378d2)"><path fill="#595757" d="M 48.101562 418.484375 L 476.914062 418.484375 L 476.914062 482.53125 L 48.101562 482.53125 Z M 48.101562 418.484375 " fill-opacity="1" fill-rule="nonzero"/></g></g><g clip-path="url(#eab3aeed8e)"><g clip-path="url(#658c105f90)"><path fill="#595757" d="M 48.101562 418.484375 L 476.914062 418.484375 L 476.914062 482.53125 L 48.101562 482.53125 Z M 48.101562 418.484375 " fill-opacity="1" fill-rule="nonzero"/></g></g><g clip-path="url(#1322155cf3)"><g clip-path="url(#a4dd2f9970)"><path fill="#595757" d="M 48.101562 418.484375 L 476.914062 418.484375 L 476.914062 482.53125 L 48.101562 482.53125 Z M 48.101562 418.484375 " fill-opacity="1" fill-rule="nonzero"/></g></g><g clip-path="url(#306e63f29c)"><g clip-path="url(#8ea6d5667f)"><path fill="#595757" d="M 48.101562 418.484375 L 476.914062 418.484375 L 476.914062 482.53125 L 48.101562 482.53125 Z M 48.101562 418.484375 " fill-opacity="1" fill-rule="nonzero"/></g></g><g clip-path="url(#c0fb486c8b)"><g clip-path="url(#199abd277b)"><path fill="#595757" d="M 48.101562 418.484375 L 476.914062 418.484375 L 476.914062 482.53125 L 48.101562 482.53125 Z M 48.101562 418.484375 " fill-opacity="1" fill-rule="nonzero"/></g></g><g clip-path="url(#ab38ccb640)"><g clip-path="url(#1f26c7f84b)"><path fill="#595757" d="M 48.101562 418.484375 L 476.914062 418.484375 L 476.914062 482.53125 L 48.101562 482.53125 Z M 48.101562 418.484375 " fill-opacity="1" fill-rule="nonzero"/></g></g><g clip-path="url(#6de44c01ea)"><g clip-path="url(#c295622f07)"><path fill="#595757" d="M 48.101562 418.484375 L 476.914062 418.484375 L 476.914062 482.53125 L 48.101562 482.53125 Z M 48.101562 418.484375 " fill-opacity="1" fill-rule="nonzero"/></g></g><g clip-path="url(#397318e911)"><g clip-path="url(#54af271e37)"><path fill="#595757" d="M 48.101562 418.484375 L 476.914062 418.484375 L 476.914062 482.53125 L 48.101562 482.53125 Z M 48.101562 418.484375 " fill-opacity="1" fill-rule="nonzero"/></g></g><g fill="#000000" fill-opacity="1"><g transform="translate(47.612051, 229.286417)"><g><path d="M 2.925781 -39.226562 L 2.925781 -29.976562 L 32.902344 -29.976562 L 32.902344 -24.238281 L 2.925781 -24.238281 L 2.925781 0 L 42.152344 0 L 42.152344 -9.25 L 12.175781 -9.25 L 12.175781 -14.988281 L 42.152344 -14.988281 L 42.152344 -39.226562 Z M 2.925781 -39.226562 "/></g></g></g><g fill="#000000" fill-opacity="1"><g transform="translate(91.369069, 229.286417)"><g><path d="M 2.925781 0 L 42.152344 0 L 42.152344 -39.226562 L 2.925781 -39.226562 Z M 12.175781 -9.25 L 12.175781 -29.976562 L 32.902344 -29.976562 L 32.902344 -9.25 Z M 12.175781 -9.25 "/></g></g></g><g fill="#000000" fill-opacity="1"><g transform="translate(135.126088, 229.286417)"><g><path d="M 2.925781 -39.226562 L 2.925781 -29.976562 L 32.902344 -29.976562 L 32.902344 -24.238281 L 2.925781 -24.238281 L 2.925781 0 L 42.152344 0 L 42.152344 -9.25 L 12.175781 -9.25 L 12.175781 -14.988281 L 42.152344 -14.988281 L 42.152344 -39.226562 Z M 2.925781 -39.226562 "/></g></g></g><g fill="#000000" fill-opacity="1"><g transform="translate(178.883103, 229.286417)"><g><path d="M 12.175781 -39.226562 L 2.925781 -39.226562 L 2.925781 -14.988281 L 32.902344 -14.988281 L 32.902344 0 L 42.152344 0 L 42.152344 -39.226562 L 32.902344 -39.226562 L 32.902344 -24.238281 L 12.175781 -24.238281 Z M 12.175781 -39.226562 "/></g></g></g><g fill="#000000" fill-opacity="1"><g transform="translate(222.640124, 229.286417)"><g><path d="M 2.925781 0 L 14.460938 0 L 37.585938 -39.226562 L 26.34375 -39.226562 Z M 2.925781 0 "/></g></g></g><g fill="#000000" fill-opacity="1"><g transform="translate(261.830987, 229.286417)"><g><path d="M 2.925781 0 L 42.152344 0 L 42.152344 -39.226562 L 2.925781 -39.226562 Z M 12.175781 -9.25 L 12.175781 -29.976562 L 32.902344 -29.976562 L 32.902344 -9.25 Z M 12.175781 -9.25 "/></g></g></g><g fill="#000000" fill-opacity="1"><g transform="translate(305.588008, 229.286417)"><g><path d="M 12.175781 -39.226562 L 2.925781 -39.226562 L 2.925781 -14.988281 L 32.902344 -14.988281 L 32.902344 0 L 42.152344 0 L 42.152344 -39.226562 L 32.902344 -39.226562 L 32.902344 -24.238281 L 12.175781 -24.238281 Z M 12.175781 -39.226562 "/></g></g></g><g fill="#000000" fill-opacity="1"><g transform="translate(349.345029, 229.286417)"><g><path d="M 2.925781 0 L 14.460938 0 L 37.585938 -39.226562 L 26.34375 -39.226562 Z M 2.925781 0 "/></g></g></g><g fill="#000000" fill-opacity="1"><g transform="translate(388.535904, 229.286417)"><g><path d="M 2.925781 -39.226562 L 2.925781 -29.976562 L 32.902344 -29.976562 L 32.902344 -24.238281 L 2.925781 -24.238281 L 2.925781 0 L 42.152344 0 L 42.152344 -9.25 L 12.175781 -9.25 L 12.175781 -14.988281 L 42.152344 -14.988281 L 42.152344 -39.226562 Z M 2.925781 -39.226562 "/></g></g></g><g fill="#000000" fill-opacity="1"><g transform="translate(432.292903, 229.286417)"><g><path d="M 2.925781 0 L 42.152344 0 L 42.152344 -39.226562 L 2.925781 -39.226562 Z M 12.175781 -9.25 L 12.175781 -29.976562 L 32.902344 -29.976562 L 32.902344 -9.25 Z M 12.175781 -9.25 "/></g></g></g><g fill="#000000" fill-opacity="1"><g transform="translate(189.307346, 282.498269)"><g><path d="M 2.925781 -9.25 L 2.925781 0 L 42.152344 0 L 42.152344 -24.238281 L 12.175781 -24.238281 L 12.175781 -29.976562 L 42.152344 -29.976562 L 42.152344 -39.226562 L 2.925781 -39.226562 L 2.925781 -14.988281 L 32.902344 -14.988281 L 32.902344 -9.25 Z M 2.925781 -9.25 "/></g></g></g><g fill="#000000" fill-opacity="1"><g transform="translate(233.064365, 282.498269)"><g><path d="M 42.152344 -39.226562 L 2.925781 -39.226562 L 2.925781 0 L 12.175781 0 L 12.175781 -7.492188 L 32.902344 -7.492188 L 32.902344 0 L 42.152344 0 Z M 12.175781 -16.742188 L 12.175781 -29.976562 L 32.902344 -29.976562 L 32.902344 -16.742188 Z M 12.175781 -16.742188 "/></g></g></g><g fill="#000000" fill-opacity="1"><g transform="translate(276.821384, 282.498269)"><g><path d="M 2.925781 -39.226562 L 2.925781 -29.976562 L 17.914062 -29.976562 L 17.914062 0 L 27.164062 0 L 27.164062 -29.976562 L 42.152344 -29.976562 L 42.152344 -39.226562 Z M 2.925781 -39.226562 "/></g></g></g><g fill="#000000" fill-opacity="1"><g transform="translate(320.578399, 282.498269)"><g><path d="M 2.925781 0 L 12.175781 0 L 12.175781 -9.25 L 2.925781 -9.25 Z M 2.925781 0 "/></g></g></g></svg>